<svg width="250" height="171" viewBox="0 0 250 171" fill="none" xmlns="http://www.w3.org/2000/svg">
<path d="M146.748 29.3961V29.3871H147.834L146.748 29.3961Z" fill="white"/>
<path d="M131.109 20.4724C130.21 19.131 129.711 17.5616 129.67 15.9473C129.617 14.036 130.214 12.1632 131.362 10.6347C131.448 10.5081 131.542 10.3872 131.643 10.2727C132.208 9.58674 132.88 8.99686 133.634 8.52598L134.195 8.24542C135.503 8.19385 136.812 8.31866 138.087 8.61648C138.228 8.63866 138.367 8.67195 138.503 8.71604C140.38 9.19985 142.14 10.0554 143.68 11.232L143.182 11.8746C141.731 10.7636 140.073 9.95433 138.304 9.49437L137.924 9.40386C136.738 9.1293 135.521 9.01064 134.304 9.0509L134.023 9.21381C133.34 9.64345 132.73 10.1779 132.213 10.7976L131.969 11.1053C131.366 11.9004 130.929 12.8082 130.684 13.7752C130.495 14.4739 130.413 15.1969 130.439 15.9201C130.474 17.3747 130.926 18.7885 131.743 19.9928L131.109 20.4724Z" fill="white"/>
<path d="M130.475 23.4048C128.973 22.9733 127.62 22.1337 126.566 20.9793L126.475 20.8888C125.956 20.2844 125.518 19.6151 125.172 18.8977C124.703 17.9038 124.432 16.8277 124.375 15.7301C124.298 14.5466 124.481 13.3605 124.909 12.2547L125.67 12.5443C125.279 13.5397 125.112 14.6088 125.181 15.6758C125.235 16.6728 125.481 17.65 125.905 18.5538C126.206 19.1743 126.583 19.755 127.027 20.2824L127.1 20.3548C128.066 21.441 129.321 22.2291 130.72 22.6264L130.475 23.4048Z" fill="white"/>
<path d="M128.466 26.7986C128.042 26.7997 127.619 26.7695 127.199 26.7081C126.413 26.591 125.647 26.3593 124.928 26.0203C123.885 25.5459 122.95 24.8638 122.18 24.0157C121.409 23.1677 120.82 22.1714 120.448 21.0879L121.217 20.8254C121.568 21.8367 122.13 22.762 122.864 23.5405C124.048 24.7979 125.619 25.623 127.326 25.8846C128.769 26.0989 130.244 25.9012 131.58 25.3144L131.906 26.0565C130.823 26.5393 129.652 26.792 128.466 26.7986Z" fill="white"/>
<path d="M122.194 17.4677L121.443 17.1509C122.267 15.2237 123.503 13.5001 125.063 12.1008L125.606 12.6982C124.135 14.0204 122.971 15.6482 122.194 17.4677Z" fill="white"/>
<path d="M130.475 23.4048C128.932 22.9633 127.548 22.0904 126.484 20.8888L126.783 20.6263L126.891 20.2281H127.018L127.1 20.3186C128.066 21.4048 129.321 22.1929 130.72 22.5902L130.475 23.4048Z" fill="white"/>
<path d="M131.109 20.4724C130.21 19.131 129.711 17.5615 129.67 15.9472H130.485C130.519 17.4018 130.971 18.8157 131.788 20.0199L131.109 20.4724Z" fill="white"/>
<path d="M127.209 26.7081C126.419 26.5919 125.65 26.3601 124.928 26.0203C123.928 25.566 123.027 24.9203 122.276 24.1197L122.873 23.5677C124.056 24.8199 125.623 25.6417 127.326 25.9026L127.209 26.7081Z" fill="white"/>
<path d="M127.1 31.9483C126.752 31.9497 126.404 31.9286 126.059 31.885C124.874 31.743 123.733 31.3513 122.71 30.7356L122.584 30.6089C121.887 29.5063 121.339 28.3165 120.955 27.0702C120.333 25.0784 120.154 22.975 120.43 20.9069C120.509 20.2973 120.624 19.693 120.774 19.0968C120.949 18.4239 121.173 17.7646 121.443 17.1238L122.194 17.4316C121.94 18.0406 121.729 18.6666 121.561 19.305C121.422 19.8567 121.313 20.4157 121.235 20.9793C120.975 22.9286 121.142 24.9111 121.724 26.7896C122.08 27.938 122.582 29.036 123.217 30.0568C124.119 30.5855 125.12 30.9214 126.159 31.0433C127.147 31.1699 128.15 31.096 129.109 30.8261C130.148 30.5487 131.117 30.0545 131.951 29.376C132.786 28.6974 133.467 27.8499 133.951 26.8892L134.684 27.2421C133.968 28.6743 132.856 29.871 131.48 30.6903C130.801 31.1161 130.063 31.4393 129.29 31.6496C128.576 31.8445 127.84 31.9449 127.1 31.9483Z" fill="white"/>
<path d="M126.955 35.0345C125.185 33.9061 123.686 32.4012 122.565 30.627L123.244 30.1925C124.313 31.8601 125.726 33.2795 127.389 34.3557L126.955 35.0345Z" fill="white"/>
<path d="M130.684 36.6726L130.557 35.8671C131.612 35.6982 132.621 35.3097 133.516 34.7267C134.352 34.1856 135.072 33.4843 135.634 32.6632C136.046 32.0661 136.372 31.4141 136.603 30.7265C137.063 29.3503 137.12 27.871 136.766 26.4638L137.553 26.2646C137.942 27.8217 137.879 29.4573 137.372 30.9799C137.123 31.7433 136.763 32.466 136.304 33.1248C135.654 34.0642 134.822 34.8626 133.856 35.4722C132.89 36.0819 131.811 36.4901 130.684 36.6726Z" fill="white"/>
<path d="M126.683 21.0155L126.674 21.0064L126.892 20.2281L126.683 21.0155Z" fill="white"/>
<path d="M134.82 37.3242C133.598 37.3231 132.381 37.165 131.199 36.8536L130.53 36.6635L130.765 35.8852C130.982 35.9485 131.19 36.021 131.408 36.0753C133.09 36.5132 134.842 36.6239 136.566 36.4011H136.639H136.711L136.621 36.8174L136.675 37.1975C136.06 37.2812 135.44 37.3235 134.82 37.3242Z" fill="white"/>
<path d="M140.53 36.1114L139.924 35.5775C140.629 34.7659 141.15 33.8121 141.454 32.7809C141.96 31.1289 141.887 29.3534 141.245 27.7489C140.716 26.3907 139.808 25.2129 138.63 24.355L139.11 23.7034C140.41 24.6527 141.415 25.9521 142.006 27.4502C142.293 28.1941 142.479 28.9735 142.558 29.7671C142.663 30.9052 142.538 32.0528 142.19 33.1413C141.841 34.2299 141.277 35.237 140.53 36.1024V36.1114Z" fill="white"/>
<path d="M140.422 36.22L140.114 35.4688C141.931 34.7125 143.564 33.5734 144.902 32.1293L145.191 32.4008L145.599 32.4822V32.5999L145.526 32.6813C144.1 34.2151 142.358 35.4223 140.422 36.22Z" fill="white"/>
<path d="M147.771 29.4323L146.983 29.215C146.963 27.1744 146.141 25.2237 144.694 23.7848C144.176 23.2768 143.588 22.847 142.947 22.5087C141.67 21.8171 140.223 21.5032 138.775 21.6037L138.729 20.7892C139.928 20.7206 141.127 20.9015 142.252 21.3206C143.377 21.7397 144.402 22.3877 145.264 23.2237C146.034 24.0058 146.648 24.9272 147.074 25.9388C147.545 27.0357 147.776 28.2206 147.753 29.4142L147.771 29.4323Z" fill="white"/>
<path d="M136.512 37.2066H136.503L136.684 36.4101L136.512 37.2066Z" fill="white"/>
<path d="M148.323 20.0018C147.646 19.1622 146.797 18.4771 145.834 17.9927C144.949 17.5303 143.979 17.2531 142.983 17.1781C142.26 17.1244 141.532 17.167 140.82 17.3048C139.401 17.5972 138.095 18.2879 137.055 19.2959L136.485 18.7167C137.638 17.6014 139.085 16.8384 140.657 16.5174C141.443 16.3568 142.247 16.3051 143.046 16.3636C144.149 16.4508 145.223 16.7586 146.205 17.2686C147.256 17.8116 148.182 18.5703 148.92 19.495L148.323 20.0018Z" fill="white"/>
<path d="M134.277 18.7438L133.471 18.6624C133.651 17.0613 134.278 15.5432 135.281 14.282C135.783 13.6622 136.364 13.1114 137.01 12.6439C137.943 11.9785 139.002 11.5094 140.122 11.2652C141.242 11.021 142.4 11.0066 143.526 11.223L143.372 12.0194C142.315 11.8143 141.226 11.8359 140.177 12.0828C139.2 12.3044 138.276 12.7198 137.462 13.3046C136.872 13.7249 136.342 14.2244 135.888 14.7888C134.991 15.9302 134.432 17.3006 134.277 18.7438Z" fill="white"/>
<path d="M148.241 19.8389C147.813 17.9158 146.977 16.1071 145.789 14.5354L146.431 14.0467C147.689 15.7093 148.575 17.6229 149.029 19.6579L148.241 19.8389Z" fill="white"/>
<path d="M134.819 37.3241C133.598 37.3231 132.381 37.1649 131.199 36.8535L130.53 36.6635C127.254 35.6503 124.447 33.5039 122.61 30.6088C121.914 29.5063 121.366 28.3164 120.981 27.0701C120.36 25.0783 120.181 22.975 120.457 20.9068C120.536 20.2973 120.651 19.6929 120.8 19.0967C120.976 18.4238 121.2 17.7645 121.47 17.1238C122.292 15.1926 123.528 13.4655 125.09 12.0646C126.055 11.1743 127.135 10.4192 128.303 9.82012C130.074 8.92517 132.022 8.43664 134.005 8.39017L135.625 8.30872L134.123 9.21375C133.408 9.59119 132.789 10.1267 132.312 10.7795L132.059 11.0962C131.456 11.8913 131.019 12.7991 130.774 13.7661C130.586 14.4648 130.503 15.1878 130.53 15.911C130.564 17.3655 131.016 18.7794 131.833 19.9837L131.154 20.4362C130.255 19.0947 129.756 17.5253 129.715 15.911C129.662 13.9997 130.259 12.1269 131.407 10.5985C131.493 10.4718 131.587 10.3509 131.688 10.2364C131.941 9.91067 132.223 9.60783 132.53 9.33141C131.157 9.52518 129.829 9.95379 128.602 10.5985C125.725 12.073 123.458 14.5105 122.194 17.4858C121.94 18.0948 121.728 18.7208 121.561 19.3592C121.422 19.911 121.313 20.4699 121.235 21.0335C120.975 22.9828 121.142 24.9653 121.724 26.8438C122.091 28.0213 122.608 29.1467 123.262 30.1925C124.331 31.86 125.744 33.2795 127.407 34.3556C128.443 35.0191 129.563 35.5397 130.738 35.9032C130.955 35.9666 131.163 36.039 131.38 36.0933C133.063 36.5313 134.814 36.6419 136.539 36.4191H136.62C139.758 36.0099 142.657 34.5297 144.829 32.2288L144.901 32.1383C145.737 31.2465 146.446 30.2447 147.01 29.1607C147.93 27.407 148.455 25.4733 148.549 23.4952C148.612 22.2801 148.509 21.062 148.241 19.8751C147.813 17.9519 146.977 16.1432 145.788 14.5716C145.057 13.5939 144.202 12.7148 143.245 11.956C142.216 11.7749 141.16 11.8026 140.141 12.0375C139.163 12.259 138.24 12.6745 137.426 13.2593C136.836 13.6796 136.306 14.179 135.851 14.7435C134.959 15.9017 134.413 17.2885 134.276 18.7438L133.471 18.6623C133.651 17.0612 134.278 15.5431 135.281 14.2819C135.782 13.6621 136.364 13.1113 137.01 12.6438C137.943 11.9784 139.002 11.5094 140.122 11.2651C141.242 11.0209 142.4 11.0065 143.526 11.2229L143.698 11.3044C144.737 12.1079 145.665 13.0452 146.458 14.0919C147.71 15.7572 148.592 17.6701 149.047 19.7031C149.335 20.9697 149.445 22.2705 149.372 23.5676C149.327 24.5644 149.175 25.5534 148.92 26.518C148.649 27.5716 148.254 28.5893 147.743 29.5499C147.17 30.6704 146.449 31.7085 145.598 32.636L145.517 32.7266C144.098 34.2571 142.367 35.4641 140.44 36.2652C139.231 36.7622 137.962 37.0969 136.666 37.2608H136.593C136.004 37.3184 135.411 37.3395 134.819 37.3241ZM142.965 22.4454C141.69 21.7568 140.247 21.4431 138.802 21.5403L138.756 20.7258C140.358 20.623 141.955 20.9777 143.363 21.7485L142.965 22.4454Z" fill="white"/>
<path d="M130.738 21.3865C129.552 20.3387 128.686 18.9772 128.24 17.4587C127.732 15.6665 127.834 13.7565 128.53 12.0285C128.584 11.8927 128.647 11.7479 128.711 11.6212C129.08 10.826 129.575 10.0956 130.177 9.45817L130.593 9.07805C131.833 8.70184 133.117 8.49482 134.412 8.46263H134.838C136.756 8.45524 138.655 8.83702 140.422 9.58487L140.214 10.0826C138.494 9.3627 136.648 8.99347 134.783 8.9966H134.403C133.177 9.03304 131.96 9.22772 130.783 9.57582L130.53 9.82923C129.965 10.4246 129.503 11.1097 129.163 11.8565C129.1 11.9728 129.045 12.0939 129 12.2185C128.614 13.1572 128.417 14.163 128.421 15.178C128.417 15.9132 128.52 16.645 128.729 17.3501C129.138 18.7714 129.945 20.0462 131.055 21.0245L130.738 21.3865Z" fill="white"/>
<path d="M130.774 24.355C129.226 24.3112 127.72 23.8415 126.421 22.9974L126.34 22.9431C124.78 21.8934 123.622 20.3461 123.054 18.5537C122.689 17.4465 122.568 16.273 122.701 15.1146L123.244 15.1779C123.116 16.2598 123.227 17.3567 123.57 18.3908C123.878 19.3568 124.37 20.2542 125.018 21.0335C125.479 21.576 126.009 22.0567 126.593 22.4635H126.656C127.881 23.2873 129.317 23.7428 130.792 23.7758L130.774 24.355Z" fill="white"/>
<path d="M127.534 28.4187C127.049 28.4177 126.564 28.3753 126.086 28.292C125.022 28.1043 124.004 27.7108 123.09 27.1335C122.1 26.5104 121.257 25.6797 120.62 24.699L121.063 24.4094C121.857 25.5849 122.957 26.5214 124.244 27.1179C125.531 27.7144 126.957 27.9482 128.367 27.7942C129.833 27.652 131.227 27.0929 132.385 26.1832L132.72 26.6086C131.476 27.5918 129.98 28.2035 128.403 28.3734C128.122 28.4006 127.86 28.4187 127.534 28.4187Z" fill="white"/>
<path d="M121.118 20.8164L120.62 20.7349C120.918 18.6886 121.656 16.7312 122.783 14.997L123.235 15.2956C122.138 16.9607 121.415 18.8444 121.118 20.8164Z" fill="white"/>
<path d="M130.774 24.355C129.196 24.314 127.662 23.8277 126.349 22.9522L126.502 22.735V22.4544H126.593H126.665C127.89 23.2783 129.326 23.7337 130.801 23.7667L130.774 24.355Z" fill="white"/>
<path d="M130.738 21.3865C129.552 20.3387 128.686 18.9771 128.24 17.4586L128.765 17.3138C129.184 18.7154 129.991 19.9701 131.091 20.934L130.738 21.3865Z" fill="white"/>
<path d="M127.534 28.4186C127.049 28.4177 126.564 28.3753 126.086 28.2919C125.022 28.1043 124.004 27.7108 123.09 27.1335L123.38 26.6719C124.231 27.2159 125.181 27.585 126.177 27.7579C126.899 27.8863 127.637 27.9107 128.367 27.8304L128.421 28.3734C128.122 28.4005 127.86 28.4186 127.534 28.4186Z" fill="white"/>
<path d="M127.489 33.7493C126.696 33.7517 125.906 33.6389 125.145 33.4144L125.036 33.3511C124.097 32.4649 123.275 31.4611 122.593 30.3645C121.501 28.6114 120.806 26.6406 120.556 24.5903C120.485 23.9897 120.448 23.3852 120.448 22.7803C120.462 22.0956 120.52 21.4124 120.62 20.7349L121.154 20.8073C121.065 21.4703 121.02 22.1385 121.018 22.8074C121.021 24.7007 121.411 26.5733 122.164 28.3103C122.918 30.0472 124.018 31.6117 125.398 32.9076C126.403 33.1924 127.455 33.2734 128.492 33.146C129.528 33.0185 130.529 32.6852 131.435 32.1655C132.076 31.8016 132.658 31.344 133.164 30.8079C134.166 29.739 134.839 28.4034 135.1 26.9615L135.634 27.0611C135.331 28.6138 134.583 30.0447 133.48 31.179C132.951 31.7502 132.341 32.2411 131.67 32.6361C130.732 33.1795 129.696 33.5303 128.62 33.6678C128.246 33.722 127.868 33.7492 127.489 33.7493Z" fill="white"/>
<path d="M130.349 36.4825C128.372 35.8349 126.56 34.7666 125.036 33.3511L125.407 32.9529C126.875 34.3076 128.62 35.3267 130.521 35.9395L130.349 36.4825Z" fill="white"/>
<path d="M134.258 37.1522L134.041 36.6545C135.042 36.2156 135.939 35.5711 136.675 34.7629C137.875 33.467 138.596 31.8004 138.72 30.0387C138.824 28.5668 138.51 27.0957 137.815 25.794L138.295 25.5316C138.858 26.5713 139.195 27.7183 139.284 28.8975C139.373 30.0766 139.212 31.2612 138.811 32.3737C138.44 33.3795 137.874 34.3021 137.145 35.0888C136.343 35.976 135.358 36.6799 134.258 37.1522Z" fill="white"/>
<path d="M126.502 22.9975H126.493V22.4544L126.502 22.9975Z" fill="white"/>
<path d="M134.838 37.1884H134.141V36.6454C136.122 36.7423 138.1 36.4121 139.942 35.677H140.042V35.9395L140.132 36.1839C138.447 36.8508 136.65 37.1917 134.838 37.1884Z" fill="white"/>
<path d="M143.625 34.1747L143.137 33.9303C143.624 32.9492 143.895 31.8754 143.933 30.7808C143.971 29.7708 143.814 28.763 143.472 27.8123C143.214 27.1253 142.864 26.4768 142.431 25.8845C141.56 24.6838 140.363 23.7574 138.983 23.2147L139.182 22.7169C140.658 23.2981 141.938 24.2868 142.874 25.5678C143.336 26.2015 143.707 26.8959 143.978 27.6313C144.358 28.6906 144.522 29.815 144.461 30.9385C144.4 32.0621 144.116 33.1622 143.625 34.1747Z" fill="white"/>
<path d="M143.544 34.2651L143.219 33.8398C144.807 32.6235 146.115 31.0803 147.056 29.3146L147.282 29.4413H147.563V29.5861C146.575 31.4163 145.204 33.0121 143.544 34.2651Z" fill="white"/>
<path d="M148.884 25.9841H148.341C148.075 24.9389 147.598 23.9594 146.938 23.1061C146.319 22.3077 145.551 21.6375 144.676 21.1331C144.036 20.7667 143.347 20.4954 142.63 20.3276C141.196 19.9652 139.689 20.0217 138.286 20.4905L138.114 19.9747C139.614 19.4755 141.225 19.4158 142.757 19.8027C143.525 19.9804 144.263 20.2701 144.947 20.6625C145.879 21.2051 146.7 21.9209 147.363 22.7712C148.084 23.7024 148.599 24.7758 148.875 25.9208L148.884 25.9841Z" fill="white"/>
<path d="M140.078 36.1838H140.069V35.6408L140.078 36.1838Z" fill="white"/>
<path d="M136.005 18.7891L135.544 18.4995C136.362 17.1508 137.549 16.0643 138.965 15.368C139.674 15.0256 140.426 14.7791 141.2 14.635C142.314 14.4415 143.455 14.4757 144.554 14.7355C145.654 14.9952 146.69 15.4752 147.599 16.1464L147.273 16.5808C146.423 15.9571 145.456 15.5107 144.43 15.2681C143.404 15.0256 142.339 14.9918 141.3 15.1689C140.572 15.3018 139.866 15.5332 139.2 15.8568C137.874 16.5042 136.764 17.5229 136.005 18.7891Z" fill="white"/>
<path d="M132.593 19.0696C132.362 17.5059 132.578 15.9087 133.218 14.463C133.531 13.7423 133.949 13.0714 134.458 12.4719C135.178 11.6044 136.068 10.8934 137.074 10.3829C138.079 9.8724 139.179 9.57309 140.304 9.50342V10.0464C139.259 10.1158 138.238 10.3971 137.305 10.8732C136.371 11.3493 135.544 12.0102 134.874 12.8158C134.401 13.3809 134.008 14.0082 133.706 14.6802C133.109 16.0355 132.908 17.5324 133.127 18.9972L132.593 19.0696Z" fill="white"/>
<path d="M147.183 16.4903C146.269 14.7331 144.992 13.1905 143.436 11.9651L143.771 11.5397C145.39 12.8192 146.716 14.43 147.662 16.264L147.183 16.4903Z" fill="white"/>
<path d="M134.838 37.1885H134.141C130.748 37.0391 127.52 35.6849 125.036 33.3692C124.097 32.4831 123.275 31.4792 122.593 30.3826C121.501 28.6295 120.806 26.6587 120.556 24.6085C120.485 24.0078 120.448 23.4034 120.448 22.7984C120.462 22.1077 120.519 21.4185 120.62 20.7349C120.919 18.6887 121.656 16.7313 122.783 14.997C123.49 13.9059 124.339 12.9137 125.308 12.0466C126.782 10.7484 128.525 9.79323 130.412 9.25005L131.453 8.91519L130.548 9.82023C129.954 10.3826 129.491 11.0685 129.191 11.8294C129.129 11.9496 129.074 12.0736 129.028 12.2005C128.641 13.1392 128.445 14.1449 128.448 15.1599C128.444 15.8951 128.548 16.627 128.756 17.332C129.166 18.7534 129.973 20.0282 131.082 21.0065L130.729 21.4137C129.543 20.3659 128.677 19.0043 128.231 17.4859C127.724 15.6937 127.825 13.7837 128.521 12.0557C128.575 11.9199 128.638 11.7751 128.702 11.6484C128.916 11.1237 129.196 10.628 129.534 10.1732C128.109 10.6744 126.787 11.432 125.634 12.4086C124.7 13.2438 123.881 14.1994 123.199 15.2504C122.116 16.9226 121.406 18.8087 121.118 20.7802C121.029 21.4402 120.983 22.1053 120.982 22.7713C120.993 25.3295 121.71 27.835 123.054 30.0116C123.709 31.0673 124.5 32.0319 125.407 32.8805C127.797 35.1377 130.913 36.4694 134.195 36.6364C136.177 36.7251 138.154 36.392 139.997 35.659H140.06C141.198 35.2013 142.27 34.5924 143.246 33.8489C144.808 32.6556 146.103 31.148 147.047 29.4233V29.3509C147.629 28.2637 148.064 27.1042 148.341 25.9027C148.578 24.8911 148.696 23.8554 148.694 22.8165C148.697 21.8643 148.597 20.9145 148.395 19.9838C148.156 18.77 147.745 17.5967 147.174 16.4994C146.26 14.7422 144.983 13.1996 143.427 11.9742C142.463 11.2054 141.401 10.5692 140.268 10.0827C139.223 10.1536 138.203 10.4356 137.27 10.9116C136.336 11.3876 135.509 12.0477 134.838 12.8521C134.365 13.4172 133.972 14.0445 133.67 14.7165C133.073 16.0717 132.872 17.5687 133.091 19.0335L132.557 19.1059C132.326 17.5422 132.542 15.9449 133.182 14.4993C133.495 13.7785 133.913 13.1077 134.422 12.5082C135.142 11.6406 136.032 10.9297 137.038 10.4192C138.043 9.90865 139.143 9.60934 140.268 9.53967H140.331H140.395C141.605 10.0365 142.741 10.6974 143.771 11.5036C145.39 12.7831 146.717 14.3938 147.662 16.2279C148.254 17.3693 148.684 18.5878 148.938 19.848C149.14 20.8185 149.24 21.8073 149.237 22.7984C149.241 23.8738 149.12 24.9461 148.875 25.9932C148.598 27.2261 148.156 28.4162 147.563 29.5319V29.6043C146.582 31.4211 145.224 33.0071 143.581 34.2562C142.55 35.0402 141.417 35.6797 140.214 36.1567H140.16C138.468 36.8381 136.661 37.1884 134.838 37.1885ZM138.286 20.4544L138.114 19.9385C139.614 19.4393 141.225 19.3797 142.757 19.7666L142.621 20.2824C141.189 19.9277 139.686 19.9873 138.286 20.4544Z" fill="white"/>
<path d="M134.847 27.7217C134.416 27.7211 133.988 27.6664 133.571 27.5588C132.464 27.2671 131.494 26.6006 130.824 25.6728C130.154 24.7451 129.827 23.6138 129.899 22.4718C129.97 21.3299 130.436 20.2481 131.216 19.4112C131.996 18.5742 133.043 18.034 134.177 17.8826C135.311 17.7312 136.462 17.978 137.435 18.581C138.407 19.184 139.14 20.1057 139.509 21.1889C139.877 22.2721 139.858 23.4497 139.456 24.5206C139.053 25.5915 138.291 26.4894 137.3 27.0611C136.556 27.4977 135.709 27.7259 134.847 27.7217ZM134.847 18.952C134.001 18.953 133.179 19.2328 132.508 19.7482C131.837 20.2636 131.355 20.9857 131.136 21.8028C130.876 22.7868 131.015 23.8338 131.524 24.7154C132.033 25.5971 132.869 26.2418 133.851 26.509C134.835 26.772 135.882 26.6354 136.766 26.1289C137.654 25.6202 138.304 24.7808 138.576 23.7939C138.836 22.8099 138.697 21.7629 138.188 20.8813C137.679 19.9996 136.843 19.3549 135.861 19.0877C135.528 18.9952 135.183 18.9495 134.838 18.952H134.847Z" fill="white"/>
<path d="M134.865 37.6862C131.252 37.6902 127.761 36.3803 125.042 34.0006C122.324 31.6209 120.564 28.3339 120.089 24.7522C119.615 21.1705 120.46 17.5386 122.465 14.5335C124.471 11.5285 127.501 9.35528 130.991 8.41906C134.48 7.48285 138.191 7.84751 141.432 9.44507C144.672 11.0426 147.221 13.7641 148.603 17.1021C149.986 20.4401 150.107 24.1669 148.945 27.5877C147.783 31.0086 145.416 33.8901 142.286 35.6951C140.029 36.9955 137.47 37.682 134.865 37.6862ZM134.82 8.98752C131.78 8.99239 128.828 9.99968 126.419 11.8533C124.01 13.7068 122.28 16.3032 121.497 19.2399C120.714 22.1765 120.922 25.2895 122.088 28.0963C123.253 30.903 125.313 33.2468 127.946 34.7644C130.579 36.2819 133.64 36.8884 136.653 36.4899C139.666 36.0914 142.463 34.7101 144.611 32.5602C146.76 30.4102 148.139 27.6117 148.535 24.5983C148.931 21.5849 148.322 18.525 146.802 15.8929C145.59 13.7883 143.844 12.0412 141.74 10.8286C139.636 9.616 137.248 8.98086 134.82 8.98752Z" fill="white"/>
<path d="M129.815 50.1938L129.444 49.9132C128.584 49.2797 108.257 34.2471 102.51 23.8935C100.982 21.4097 100.205 18.5368 100.274 15.6215C100.353 11.7385 101.905 8.0307 104.616 5.24942C107.326 2.46815 110.993 0.821475 114.873 0.643127C115.108 0.643127 115.37 0.643127 115.642 0.643127H115.859H116.23C116.871 0.658735 117.51 0.725315 118.14 0.842235C118.42 0.842235 118.665 0.941789 118.9 0.996091C119.135 1.05039 119.398 1.1047 119.642 1.1771C120.83 1.49276 121.972 1.96446 123.036 2.5799L123.651 2.94192C123.896 3.09577 124.122 3.24058 124.339 3.40348C124.556 3.56639 124.81 3.7474 125.045 3.93745C126.219 4.88213 127.247 5.99531 128.095 7.24083L128.457 7.7748L127.869 8.03726C123.95 9.74644 120.86 12.9277 119.266 16.8947C117.672 20.8617 117.701 25.2965 119.347 29.2422C120.993 33.1879 124.124 36.3283 128.065 37.9859C132.006 39.6435 136.441 39.6854 140.413 38.1025L142.793 37.1975L129.815 50.1938ZM115.597 1.72012H114.927C112.453 1.82306 110.048 2.57127 107.953 3.89048C105.857 5.20969 104.143 7.05404 102.98 9.24047C101.817 11.4269 101.246 13.8794 101.324 16.3546C101.402 18.8297 102.126 21.2415 103.424 23.3505C108.646 32.7628 126.855 46.637 129.67 48.7638L138.621 39.804C137.288 40.1319 135.921 40.299 134.548 40.3018C131.274 40.2828 128.071 39.3446 125.305 37.5941C122.538 35.8435 120.319 33.3511 118.9 30.4007C117.772 28.0642 117.19 25.5016 117.199 22.907C117.205 19.6752 118.11 16.5088 119.812 13.7615C121.514 11.0142 123.946 8.79418 126.837 7.34944C126.123 6.3995 125.293 5.54218 124.366 4.79724C124.158 4.62528 123.941 4.45332 123.715 4.29947C123.489 4.14561 123.289 4.00986 123.09 3.88315C122.891 3.75645 122.71 3.64784 122.511 3.53924C121.516 2.96987 120.451 2.53181 119.343 2.23599C119.117 2.16359 118.891 2.11833 118.674 2.06403C118.457 2.00973 118.212 1.96448 117.977 1.92828C117.379 1.81828 116.774 1.75474 116.167 1.73822H115.859H115.597V1.72012Z" fill="white"/>
<path d="M136.856 19.4316C137.524 19.8567 138.333 20.0002 139.106 19.8306C139.88 19.661 140.554 19.1922 140.983 18.5266L141.119 18.2913C141.192 18.1398 141.253 17.9824 141.3 17.8207C141.344 17.6791 141.374 17.5336 141.39 17.3863C141.626 16.0016 141.617 11.7479 141.617 11.7479C141.617 11.7479 137.996 13.6666 136.811 14.3725C136.637 14.4858 136.471 14.6098 136.313 14.7436C136.127 14.92 135.965 15.121 135.833 15.3409C135.428 16.0193 135.308 16.8308 135.499 17.5976C135.691 18.3643 136.179 19.0239 136.856 19.4316Z" fill="white"/>
<path d="M138.042 19.9204C138.13 20.1875 138.271 20.4342 138.456 20.646C138.642 20.8577 138.867 21.0303 139.12 21.1534C139.374 21.2766 139.649 21.3478 139.93 21.363C140.211 21.3781 140.492 21.3369 140.757 21.2417L140.929 21.1693C141.037 21.1229 141.14 21.0653 141.236 20.9974C141.323 20.9382 141.405 20.8716 141.481 20.7983C142.223 20.1376 144.105 17.7935 144.105 17.7935C144.105 17.7935 141.254 17.2324 140.295 17.1148C140.151 17.1008 140.005 17.1008 139.861 17.1148C139.678 17.1238 139.498 17.1604 139.327 17.2234C138.799 17.4118 138.368 17.8012 138.127 18.3066C137.887 18.812 137.856 19.3922 138.042 19.9204Z" fill="white"/>
<path d="M100.646 170.21H100.238H99.8312H99.4149H98.9985V162.644H103.198C103.198 162.907 103.144 163.07 103.144 163.115C103.144 163.16 103.144 163.314 103.198 163.586L102.012 163.477C101.632 163.477 101.18 163.432 100.646 163.432V170.21Z" fill="white"/>
<path d="M106.32 162.708H106.429H106.556H106.791C107.035 163.368 107.261 163.957 107.452 164.463C107.642 164.97 107.886 165.604 108.185 166.355C108.483 167.106 108.71 167.685 108.872 168.102L109.777 170.238H109.406H109.081H108.809H108.538H108.203H107.841C107.723 169.821 107.578 169.387 107.424 168.934C107.271 168.482 107.126 168.075 106.999 167.74C106.872 167.405 106.7 166.934 106.465 166.337C106.23 165.74 106.049 165.224 105.895 164.789C104.99 166.952 104.32 168.762 103.849 170.219C103.678 170.206 103.505 170.206 103.334 170.219C103.165 170.206 102.995 170.206 102.827 170.219C103.134 169.486 103.424 168.826 103.678 168.219C103.931 167.613 104.193 167.016 104.438 166.409C104.682 165.803 104.926 165.224 105.171 164.599C105.415 163.975 105.66 163.332 105.895 162.681H106.085L106.32 162.708Z" fill="white"/>
<path d="M116.538 170.21H116.122H115.714H115.298H114.891V166.699H114.809L114.103 167.912L112.791 170.21H112.293H111.795H111.289H110.809L111.234 169.541L111.913 168.491L112.637 167.342C112.818 167.052 112.999 166.753 113.171 166.436C112.848 166.375 112.54 166.249 112.266 166.065C112.014 165.896 111.808 165.666 111.669 165.396C111.524 165.116 111.45 164.805 111.452 164.491C111.44 164.163 111.524 163.839 111.695 163.559C111.865 163.279 112.114 163.056 112.411 162.916C112.995 162.729 113.609 162.656 114.221 162.699H116.565L116.538 170.21ZM114.891 163.278H114.511C114.2 163.262 113.891 163.317 113.606 163.441C113.486 163.506 113.385 163.6 113.311 163.713C113.237 163.827 113.192 163.957 113.18 164.092C113.145 164.274 113.127 164.459 113.126 164.645C113.126 165.703 113.606 166.228 114.574 166.228H114.854L114.891 163.278Z" fill="white"/>
<path d="M124.403 168.98L124.158 169.885C123.483 170.213 122.738 170.375 121.986 170.355C121.43 170.359 120.876 170.27 120.348 170.093C119.863 169.93 119.415 169.675 119.027 169.342C118.643 169.021 118.334 168.619 118.122 168.165C117.908 167.687 117.799 167.168 117.805 166.645C117.797 166.024 117.914 165.409 118.149 164.835C118.346 164.333 118.655 163.884 119.054 163.522C119.462 163.174 119.936 162.913 120.448 162.753C121.001 162.578 121.578 162.492 122.158 162.5C122.555 162.5 122.95 162.549 123.335 162.644C123.707 162.725 124.066 162.856 124.403 163.034C124.358 163.205 124.312 163.396 124.267 163.622C124.222 163.848 124.186 164.029 124.149 164.165H123.996C123.784 163.864 123.509 163.614 123.19 163.432C122.878 163.256 122.526 163.162 122.167 163.16C121.769 163.15 121.375 163.246 121.027 163.441C120.698 163.63 120.421 163.897 120.222 164.219C120.005 164.549 119.846 164.913 119.751 165.296C119.657 165.697 119.609 166.107 119.606 166.518C119.593 167.091 119.698 167.661 119.914 168.192C120.089 168.658 120.406 169.056 120.82 169.331C121.235 169.605 121.725 169.742 122.222 169.722C122.584 169.714 122.941 169.634 123.271 169.486C123.605 169.344 123.911 169.145 124.177 168.898L124.403 168.98Z" fill="white"/>
<path d="M131.933 168.98L131.688 169.885C131.013 170.213 130.268 170.375 129.516 170.355C128.963 170.358 128.412 170.269 127.887 170.093C127.401 169.932 126.952 169.677 126.566 169.342C126.179 169.023 125.87 168.621 125.661 168.165C125.45 167.686 125.345 167.168 125.353 166.645C125.342 166.025 125.456 165.409 125.688 164.835C125.885 164.334 126.195 163.885 126.593 163.522C126.998 163.171 127.473 162.908 127.987 162.753C128.54 162.578 129.117 162.492 129.697 162.5C130.091 162.501 130.483 162.549 130.865 162.644C131.238 162.722 131.597 162.853 131.933 163.034C131.933 163.205 131.851 163.396 131.806 163.622C131.761 163.848 131.716 164.029 131.679 164.165H131.535C131.322 163.862 131.043 163.612 130.72 163.432C130.411 163.257 130.062 163.163 129.706 163.16C129.305 163.149 128.908 163.246 128.557 163.441C128.23 163.632 127.954 163.899 127.751 164.219C127.541 164.551 127.385 164.915 127.29 165.296C127.189 165.696 127.137 166.106 127.136 166.518C127.127 167.091 127.232 167.66 127.444 168.192C127.632 168.647 127.946 169.04 128.349 169.324C128.772 169.595 129.267 169.734 129.77 169.722C130.129 169.713 130.483 169.633 130.81 169.486C131.144 169.344 131.45 169.145 131.716 168.898L131.933 168.98Z" fill="white"/>
<path d="M134.195 167.921C134.132 168.111 134.041 168.373 133.924 168.69C133.806 169.007 133.706 169.296 133.625 169.541C133.543 169.785 133.471 170.002 133.426 170.201H133.172H132.91H132.647H132.376L135.525 162.581H135.942H136.358L139.426 170.21H138.947H138.467H137.996H137.535C137.2 169.152 136.946 168.4 136.756 167.921H134.195ZM136.503 167.251L135.525 164.69L134.494 167.251H136.503Z" fill="white"/>
<path d="M144.621 170.21V166.726L142.34 170.21H141.879H141.399H140.938H140.467V170.066L143.535 165.812C143.254 165.477 142.838 165.006 142.277 164.4C141.716 163.794 141.191 163.242 140.684 162.762V162.644C140.879 162.678 141.075 162.699 141.272 162.708C141.47 162.706 141.667 162.685 141.861 162.644L143.463 164.654C143.816 165.079 144.214 165.559 144.666 166.083V162.644C144.936 162.685 145.208 162.706 145.481 162.708C145.753 162.705 146.026 162.684 146.295 162.644V166.083C146.847 165.45 147.789 164.273 149.101 162.644C149.294 162.686 149.491 162.707 149.689 162.708C149.887 162.701 150.083 162.68 150.278 162.644V162.726C149.771 163.205 149.246 163.748 148.703 164.346C148.16 164.943 147.725 165.423 147.427 165.776L150.495 170.029V170.174H150.024H149.563H149.092H148.63L146.295 166.69V170.174C145.924 170.174 145.653 170.129 145.481 170.129C145.193 170.139 144.906 170.166 144.621 170.21Z" fill="white"/>
<path d="M36.931 142.915C36.472 143.123 35.9736 143.231 35.4693 143.231C34.9651 143.231 34.4667 143.123 34.0077 142.915C33.6335 142.677 33.3598 142.309 33.2384 141.883C32.9248 140.589 32.9248 139.24 33.2384 137.946C33.3598 137.519 33.6335 137.152 34.0077 136.914C34.4667 136.705 34.9651 136.597 35.4693 136.597C35.9736 136.597 36.472 136.705 36.931 136.914C37.3085 137.151 37.5856 137.518 37.7093 137.946C38.0229 139.24 38.0229 140.589 37.7093 141.883C37.5856 142.311 37.3085 142.678 36.931 142.915ZM34.0348 142.082C34.202 142.299 34.4221 142.47 34.6741 142.577C34.926 142.685 35.2014 142.726 35.4738 142.697C35.7451 142.728 36.0195 142.687 36.2702 142.579C36.5209 142.471 36.7392 142.3 36.9038 142.082C37.4346 140.686 37.4346 139.143 36.9038 137.747C36.7392 137.529 36.5209 137.358 36.2702 137.25C36.0195 137.142 35.7451 137.101 35.4738 137.131C35.2014 137.102 34.926 137.144 34.6741 137.251C34.4221 137.359 34.202 137.53 34.0348 137.747C33.504 139.143 33.504 140.686 34.0348 142.082Z" fill="white"/>
<path d="M41.4923 143.123C41.3566 143.123 41.2932 143.05 41.2932 142.915V136.914C41.2932 136.778 41.3566 136.706 41.4923 136.706H41.6914C41.7195 136.703 41.7478 136.707 41.7743 136.716C41.8009 136.726 41.825 136.741 41.8449 136.761C41.8648 136.781 41.88 136.805 41.8895 136.831C41.899 136.858 41.9024 136.886 41.8996 136.914V139.34C41.8996 139.403 41.8996 139.43 41.9901 139.43H45.0401C45.1034 139.43 45.1396 139.43 45.1396 139.34V136.914C45.1396 136.778 45.203 136.706 45.3387 136.706H45.5469C45.6736 136.706 45.7369 136.778 45.7369 136.914V142.915C45.7369 143.05 45.6736 143.123 45.5469 143.123H45.3387C45.203 143.123 45.1396 143.05 45.1396 142.915V140.018C45.1396 139.955 45.1396 139.928 45.0401 139.928H41.9901C41.9267 139.928 41.8996 139.928 41.8996 140.018V142.887C41.9024 142.915 41.899 142.944 41.8895 142.97C41.88 142.997 41.8648 143.021 41.8449 143.041C41.825 143.061 41.8009 143.076 41.7743 143.086C41.7478 143.095 41.7195 143.098 41.6914 143.096L41.4923 143.123Z" fill="white"/>
<path d="M48.8231 143.123C48.7055 143.123 48.6421 143.123 48.615 142.96V142.851C48.615 142.752 48.615 142.67 48.7507 142.616C49.0825 142.423 49.35 142.136 49.52 141.792C49.6586 141.503 49.7649 141.2 49.8368 140.887C49.9092 140.571 49.9725 140.209 50.0268 139.81C50.0811 139.412 50.1354 138.742 50.2169 137.792C50.2094 137.64 50.235 137.488 50.292 137.347C50.3491 137.206 50.4362 137.079 50.5472 136.974C50.6583 136.87 50.7907 136.791 50.9353 136.744C51.0798 136.696 51.2331 136.68 51.3844 136.697H53.285C53.3303 136.691 53.3765 136.696 53.4198 136.71C53.4631 136.725 53.5025 136.75 53.5349 136.782C53.5672 136.814 53.5917 136.854 53.6065 136.897C53.6212 136.94 53.6258 136.986 53.6198 137.032V142.906C53.6227 142.934 53.6192 142.962 53.6098 142.988C53.6003 143.015 53.585 143.039 53.5651 143.059C53.5452 143.079 53.5211 143.094 53.4946 143.104C53.468 143.113 53.4397 143.117 53.4117 143.114H53.1945C53.0678 143.114 53.0044 143.041 53.0044 142.906V137.303C53.0057 137.291 53.0043 137.278 53.0003 137.266C52.9963 137.254 52.9899 137.243 52.9813 137.233C52.9728 137.224 52.9624 137.217 52.9508 137.211C52.9392 137.206 52.9266 137.204 52.9139 137.204H51.5202C51.4239 137.195 51.3268 137.206 51.2354 137.238C51.1441 137.27 51.0608 137.321 50.9911 137.388C50.9214 137.455 50.8671 137.536 50.8319 137.627C50.7967 137.717 50.7814 137.813 50.7871 137.91C50.6694 139.249 50.5789 140.163 50.4975 140.625C50.427 141.086 50.2801 141.533 50.063 141.946C49.9311 142.226 49.7503 142.481 49.5291 142.697C49.3396 142.904 49.0945 143.052 48.8231 143.123Z" fill="white"/>
<path d="M56.6788 143.123C56.6499 143.126 56.6206 143.122 56.5937 143.111C56.5668 143.1 56.5431 143.082 56.5249 143.059C56.5127 143.032 56.5063 143.003 56.5063 142.973C56.5063 142.944 56.5127 142.914 56.5249 142.887L58.5613 136.978C58.5821 136.896 58.6305 136.825 58.6982 136.775C58.7658 136.726 58.8486 136.701 58.9323 136.706H59.4301C59.5142 136.7 59.5978 136.723 59.6659 136.773C59.734 136.823 59.782 136.895 59.8012 136.978L61.8465 142.887C61.8588 142.914 61.8651 142.944 61.8651 142.973C61.8651 143.003 61.8588 143.032 61.8465 143.059C61.8283 143.082 61.8047 143.1 61.7778 143.111C61.7509 143.122 61.7216 143.126 61.6927 143.123H61.4755C61.4235 143.127 61.3717 143.113 61.3288 143.083C61.2859 143.054 61.2546 143.01 61.2402 142.96L60.5976 141.077C60.5976 141.023 60.5976 141.005 60.5071 141.005H57.8553C57.8446 141.004 57.8338 141.005 57.8234 141.008C57.813 141.011 57.8034 141.016 57.795 141.022C57.7865 141.029 57.7795 141.037 57.7744 141.047C57.7692 141.056 57.766 141.067 57.7648 141.077L57.1223 142.96C57.1078 143.01 57.0765 143.054 57.0336 143.083C56.9908 143.113 56.9389 143.127 56.887 143.123H56.6788ZM58.0544 140.471H60.2989C60.3623 140.471 60.3894 140.471 60.3713 140.371L59.4663 137.711L59.3215 137.267C59.3171 137.242 59.3034 137.22 59.2832 137.205C59.2631 137.19 59.2379 137.183 59.2129 137.186H59.1133C59.0898 137.185 59.0669 137.193 59.0486 137.208C59.0304 137.223 59.0181 137.244 59.0138 137.267L58.8599 137.711L57.9549 140.371C57.9639 140.435 57.982 140.471 58.0544 140.471Z" fill="white"/>
<path d="M64.9508 143.123C64.8241 143.123 64.7607 143.05 64.7607 142.915V136.914C64.7607 136.778 64.8241 136.706 64.9508 136.706H65.1409C65.2766 136.706 65.34 136.778 65.34 136.914V142.1V142.172C65.34 142.172 65.34 142.172 65.4033 142.172L65.6748 141.711L68.6705 136.887C68.6965 136.846 68.7325 136.812 68.7752 136.788C68.8179 136.764 68.866 136.752 68.9149 136.751H69.1773C69.2053 136.749 69.2337 136.752 69.2602 136.761C69.2867 136.771 69.3108 136.786 69.3308 136.806C69.3507 136.826 69.3659 136.85 69.3754 136.877C69.3849 136.903 69.3883 136.931 69.3855 136.959V142.96C69.3883 142.988 69.3849 143.016 69.3754 143.043C69.3659 143.069 69.3507 143.093 69.3308 143.113C69.3108 143.133 69.2867 143.148 69.2602 143.158C69.2337 143.167 69.2053 143.171 69.1773 143.168H69.0325C68.8968 143.168 68.8334 143.096 68.8334 142.96V137.774C68.8334 137.729 68.8334 137.702 68.8334 137.702C68.8334 137.702 68.8334 137.702 68.77 137.747L68.5347 138.172L65.5029 143.032C65.4791 143.076 65.4435 143.111 65.4003 143.135C65.357 143.159 65.3079 143.171 65.2585 143.168L64.9508 143.123ZM67.1048 136.154C66.76 136.169 66.4208 136.063 66.1454 135.855C66.0261 135.763 65.9286 135.645 65.8598 135.51C65.791 135.376 65.7526 135.228 65.7472 135.077C65.7472 134.977 65.7472 134.932 65.892 134.932H66.073C66.1545 134.932 66.2088 134.977 66.2269 135.077C66.234 135.181 66.2616 135.283 66.3082 135.376C66.3548 135.469 66.4195 135.552 66.4984 135.62C66.6748 135.743 66.8849 135.81 67.1003 135.81C67.3156 135.81 67.5257 135.743 67.7021 135.62C67.7798 135.552 67.843 135.468 67.8881 135.375C67.9331 135.282 67.9591 135.18 67.9646 135.077C67.9646 134.977 68.0279 134.932 68.1184 134.932H68.2904C68.399 134.932 68.4442 134.977 68.4442 135.077C68.4294 135.277 68.364 135.47 68.2542 135.638C68.1397 135.806 67.9795 135.938 67.7926 136.018C67.5758 136.113 67.3412 136.159 67.1048 136.154Z" fill="white"/>
<path d="M73.1957 143.123C73.0599 143.123 72.9966 143.05 72.9966 142.915V136.914C72.9966 136.778 73.0599 136.706 73.1957 136.706H73.3948C73.4228 136.703 73.4511 136.707 73.4777 136.716C73.5042 136.726 73.5283 136.741 73.5482 136.761C73.5682 136.781 73.5834 136.805 73.5929 136.831C73.6023 136.858 73.6058 136.886 73.603 136.914V139.34C73.603 139.403 73.603 139.43 73.6935 139.43H76.7434C76.8068 139.43 76.843 139.43 76.843 139.34V136.914C76.843 136.778 76.9063 136.706 77.0421 136.706H77.2503C77.377 136.706 77.4403 136.778 77.4403 136.914V142.915C77.4403 143.05 77.377 143.123 77.2503 143.123H77.0421C76.9063 143.123 76.843 143.05 76.843 142.915V140.018C76.843 139.955 76.843 139.928 76.7434 139.928H73.6935C73.6301 139.928 73.603 139.928 73.603 140.018V142.887C73.6058 142.915 73.6023 142.944 73.5929 142.97C73.5834 142.997 73.5682 143.021 73.5482 143.041C73.5283 143.061 73.5042 143.076 73.4777 143.086C73.4511 143.095 73.4228 143.098 73.3948 143.096L73.1957 143.123Z" fill="white"/>
<path d="M85.1874 143.123C85.0607 143.123 84.9973 143.05 84.9973 142.915V136.914C84.9973 136.778 85.0607 136.706 85.1874 136.706H85.3955C85.5313 136.706 85.5946 136.778 85.5946 136.914V138.779C85.5946 138.99 85.5946 139.207 85.5946 139.43C85.5946 139.494 85.5946 139.521 85.6851 139.521H86.373C86.4869 139.538 86.6029 139.538 86.7169 139.521C86.8201 139.496 86.9202 139.459 87.0155 139.412C87.1185 139.361 87.2106 139.29 87.2871 139.204C87.3732 139.124 87.4548 139.04 87.5314 138.951C87.6117 138.846 87.6814 138.734 87.7396 138.616C87.8094 138.502 87.8728 138.384 87.9296 138.263C87.9749 138.172 88.0382 138.036 88.1106 137.855L88.2826 137.421L88.4545 136.969C88.4585 136.951 88.4585 136.932 88.4545 136.914C88.469 136.864 88.5003 136.821 88.5432 136.791C88.586 136.761 88.6379 136.747 88.6899 136.751H88.889C88.9189 136.747 88.9494 136.751 88.9768 136.764C89.0042 136.777 89.0271 136.798 89.0428 136.824C89.0548 136.852 89.0609 136.883 89.0609 136.914C89.0609 136.945 89.0548 136.976 89.0428 137.005C88.9433 137.267 88.8618 137.457 88.8166 137.593C88.7713 137.729 88.6899 137.91 88.5903 138.127C88.4908 138.344 88.4183 138.516 88.355 138.634C88.2791 138.778 88.1945 138.917 88.1016 139.05C88.0181 139.181 87.921 139.302 87.812 139.412C87.7072 139.5 87.5952 139.579 87.4771 139.647C87.3541 139.71 87.2232 139.756 87.0879 139.783C87.2051 139.803 87.3203 139.833 87.4319 139.874C87.5494 139.915 87.6572 139.979 87.7486 140.064L88.0111 140.308C88.1032 140.413 88.1823 140.528 88.2464 140.652C88.3369 140.797 88.4093 140.924 88.4636 141.032C88.5179 141.141 88.5903 141.295 88.6718 141.494L88.8709 141.982C88.8709 142.109 88.9885 142.29 89.0881 142.534C89.1876 142.779 89.1695 142.788 89.1967 142.851C89.2238 142.915 89.1967 142.987 89.1967 143.032C89.1791 143.056 89.1555 143.074 89.1284 143.085C89.1014 143.096 89.0718 143.1 89.0428 143.096H88.8166C88.7646 143.1 88.7128 143.086 88.6699 143.056C88.627 143.026 88.5957 142.983 88.5813 142.933L88.4727 142.625C88.4002 142.417 88.3369 142.263 88.3007 142.163C88.2645 142.064 88.2011 141.928 88.1287 141.747C88.0563 141.566 88.002 141.439 87.9658 141.358C87.9296 141.276 87.8663 141.159 87.7939 141.023C87.7465 140.913 87.6857 140.81 87.6129 140.715C87.5586 140.643 87.4952 140.562 87.4138 140.471C87.3508 140.389 87.2742 140.319 87.1875 140.263L86.9431 140.127C86.8549 140.081 86.7604 140.047 86.6626 140.028C86.5572 140.018 86.4512 140.018 86.3458 140.028H85.658C85.5856 140.028 85.5584 140.028 85.5675 140.118C85.5675 140.335 85.5675 140.543 85.5675 140.752V142.915C85.5675 143.05 85.5041 143.123 85.3684 143.123H85.1874Z" fill="white"/>
<path d="M95.9394 142.915C95.4804 143.123 94.982 143.231 94.4777 143.231C93.9735 143.231 93.4751 143.123 93.0161 142.915C92.642 142.677 92.3682 142.309 92.2468 141.883C91.9332 140.589 91.9332 139.24 92.2468 137.946C92.3682 137.519 92.642 137.152 93.0161 136.914C93.4751 136.705 93.9735 136.597 94.4777 136.597C94.982 136.597 95.4804 136.705 95.9394 136.914C96.3135 137.152 96.5873 137.519 96.7087 137.946C97.0343 139.238 97.0343 140.591 96.7087 141.883C96.5873 142.309 96.3135 142.677 95.9394 142.915ZM93.0433 142.082C93.2105 142.299 93.4306 142.47 93.6825 142.577C93.9344 142.685 94.2098 142.726 94.4823 142.697C94.7535 142.728 95.0279 142.687 95.2786 142.579C95.5293 142.471 95.7476 142.3 95.9122 142.082C96.443 140.686 96.443 139.143 95.9122 137.747C95.7476 137.529 95.5293 137.358 95.2786 137.25C95.0279 137.142 94.7535 137.101 94.4823 137.131C94.2098 137.102 93.9344 137.144 93.6825 137.251C93.4306 137.359 93.2105 137.53 93.0433 137.747C92.5004 139.141 92.5004 140.688 93.0433 142.082Z" fill="white"/>
<path d="M100.501 143.123C100.365 143.123 100.302 143.05 100.302 142.915V136.914C100.302 136.778 100.365 136.706 100.501 136.706H100.709C100.737 136.703 100.765 136.707 100.792 136.716C100.818 136.726 100.842 136.741 100.862 136.761C100.882 136.781 100.898 136.805 100.907 136.831C100.916 136.858 100.92 136.886 100.917 136.914V139.34C100.917 139.403 100.917 139.43 101.008 139.43H104.058C104.121 139.43 104.148 139.43 104.148 139.34V136.914C104.145 136.886 104.149 136.858 104.158 136.831C104.168 136.805 104.183 136.781 104.203 136.761C104.223 136.741 104.247 136.726 104.273 136.716C104.3 136.707 104.328 136.703 104.356 136.706H104.564C104.691 136.706 104.754 136.778 104.754 136.914V142.915C104.754 143.05 104.691 143.123 104.564 143.123H104.329C104.301 143.126 104.273 143.122 104.246 143.113C104.22 143.103 104.196 143.088 104.176 143.068C104.156 143.048 104.14 143.024 104.131 142.997C104.121 142.971 104.118 142.943 104.121 142.915V140.018C104.121 139.955 104.121 139.928 104.03 139.928H100.98C100.917 139.928 100.89 139.928 100.89 140.018V142.887C100.893 142.915 100.889 142.944 100.88 142.97C100.87 142.997 100.855 143.021 100.835 143.041C100.815 143.061 100.791 143.076 100.765 143.086C100.738 143.095 100.71 143.098 100.682 143.096L100.501 143.123Z" fill="white"/>
<path d="M107.849 144.544C107.827 144.547 107.805 144.545 107.784 144.537C107.763 144.53 107.743 144.518 107.728 144.503C107.712 144.487 107.7 144.468 107.693 144.447C107.686 144.425 107.684 144.403 107.687 144.381V142.797C107.684 142.776 107.685 142.755 107.692 142.735C107.699 142.715 107.71 142.696 107.725 142.681C107.74 142.667 107.758 142.655 107.778 142.649C107.798 142.642 107.82 142.64 107.84 142.643H108.193C108.217 142.644 108.24 142.638 108.26 142.625C108.279 142.612 108.294 142.593 108.302 142.571C108.632 141.895 108.864 141.176 108.99 140.435C109.142 139.576 109.236 138.709 109.27 137.837C109.266 137.685 109.293 137.534 109.349 137.392C109.405 137.251 109.489 137.122 109.596 137.014C109.831 136.81 110.136 136.706 110.447 136.724H112.32C112.371 136.718 112.421 136.724 112.469 136.741C112.517 136.757 112.56 136.784 112.596 136.82C112.631 136.856 112.658 136.899 112.675 136.947C112.692 136.994 112.697 137.045 112.691 137.095V142.525C112.691 142.589 112.691 142.625 112.782 142.625H113.316C113.337 142.622 113.358 142.624 113.378 142.631C113.398 142.637 113.416 142.648 113.431 142.663C113.446 142.678 113.458 142.697 113.464 142.717C113.471 142.737 113.473 142.758 113.47 142.779V144.363C113.473 144.385 113.471 144.407 113.463 144.428C113.456 144.45 113.444 144.469 113.429 144.484C113.413 144.5 113.394 144.512 113.373 144.519C113.351 144.526 113.329 144.529 113.307 144.526H113.207C113.186 144.527 113.165 144.524 113.146 144.517C113.126 144.509 113.108 144.498 113.093 144.484C113.077 144.469 113.065 144.452 113.057 144.433C113.049 144.414 113.044 144.393 113.044 144.372L112.99 143.213C112.99 143.15 112.99 143.123 112.891 143.123H108.275C108.212 143.123 108.175 143.123 108.175 143.213L108.121 144.372C108.121 144.471 108.058 144.526 107.949 144.526L107.849 144.544ZM108.99 142.643H111.995C112.058 142.643 112.085 142.643 112.085 142.544V137.303C112.085 137.231 112.085 137.186 111.976 137.186H110.547C110.454 137.178 110.361 137.188 110.272 137.216C110.184 137.244 110.102 137.289 110.031 137.349C109.911 137.497 109.847 137.683 109.85 137.874C109.824 138.742 109.736 139.607 109.587 140.462C109.46 141.168 109.238 141.853 108.926 142.498C108.854 142.589 108.917 142.625 108.99 142.625V142.643Z" fill="white"/>
<path d="M116.71 143.123C116.574 143.123 116.511 143.05 116.511 142.915V136.914C116.511 136.778 116.574 136.706 116.71 136.706H116.891C116.919 136.703 116.947 136.707 116.974 136.716C117 136.726 117.024 136.741 117.044 136.761C117.064 136.781 117.08 136.805 117.089 136.831C117.099 136.858 117.102 136.886 117.099 136.914V142.1V142.172C117.099 142.172 117.099 142.172 117.162 142.172L117.434 141.711L120.439 136.887C120.463 136.844 120.498 136.808 120.541 136.784C120.585 136.76 120.634 136.749 120.683 136.751H120.936C120.965 136.748 120.993 136.752 121.019 136.761C121.046 136.771 121.07 136.786 121.09 136.806C121.11 136.826 121.125 136.85 121.135 136.877C121.144 136.903 121.147 136.931 121.145 136.959V142.96C121.147 142.988 121.144 143.016 121.135 143.043C121.125 143.069 121.11 143.093 121.09 143.113C121.07 143.133 121.046 143.148 121.019 143.158C120.993 143.167 120.965 143.171 120.936 143.168H120.755C120.727 143.171 120.699 143.167 120.673 143.158C120.646 143.148 120.622 143.133 120.602 143.113C120.582 143.093 120.567 143.069 120.557 143.043C120.548 143.016 120.544 142.988 120.547 142.96V137.774C120.547 137.729 120.547 137.702 120.547 137.702C120.547 137.702 120.547 137.702 120.484 137.747C120.393 137.919 120.312 138.064 120.24 138.172L117.208 143.032C117.185 143.074 117.15 143.109 117.109 143.133C117.068 143.157 117.02 143.169 116.972 143.168L116.71 143.123Z" fill="white"/>
<path d="M126.457 143.123C126.429 143.126 126.401 143.122 126.374 143.113C126.348 143.103 126.324 143.088 126.304 143.068C126.284 143.048 126.269 143.024 126.259 142.997C126.25 142.971 126.246 142.943 126.249 142.915V137.303C126.249 137.24 126.249 137.213 126.158 137.213H124.348C124.213 137.213 124.149 137.14 124.149 137.005V136.878C124.149 136.742 124.213 136.67 124.348 136.67H128.765C128.901 136.67 128.964 136.742 128.964 136.878V137.005C128.964 137.14 128.901 137.213 128.765 137.213H126.955C126.892 137.213 126.864 137.213 126.864 137.303V142.878C126.867 142.906 126.864 142.935 126.854 142.961C126.845 142.988 126.83 143.012 126.81 143.032C126.79 143.052 126.766 143.067 126.739 143.076C126.713 143.086 126.684 143.089 126.656 143.087L126.457 143.123Z" fill="white"/>
<path d="M133.037 143.123C132.735 143.136 132.44 143.033 132.213 142.833C132.11 142.736 132.029 142.618 131.976 142.487C131.922 142.356 131.898 142.214 131.905 142.073V137.756C131.898 137.614 131.922 137.473 131.976 137.342C132.029 137.211 132.11 137.093 132.213 136.996C132.44 136.796 132.735 136.692 133.037 136.706H135.589C135.706 136.706 135.77 136.778 135.761 136.932V137.032C135.764 137.058 135.761 137.085 135.752 137.11C135.743 137.136 135.728 137.158 135.709 137.177C135.689 137.195 135.666 137.209 135.641 137.217C135.615 137.225 135.588 137.226 135.562 137.222H133.136C133.051 137.216 132.966 137.228 132.887 137.258C132.807 137.288 132.735 137.334 132.675 137.394C132.56 137.533 132.505 137.712 132.521 137.892V139.376C132.521 139.439 132.521 139.466 132.602 139.466H135.182C135.317 139.466 135.381 139.539 135.381 139.675V139.765C135.383 139.792 135.38 139.819 135.371 139.845C135.362 139.87 135.348 139.893 135.329 139.912C135.31 139.931 135.286 139.946 135.261 139.955C135.236 139.964 135.208 139.967 135.182 139.964H132.602C132.548 139.964 132.521 139.964 132.521 140.055V141.937C132.512 142.026 132.521 142.116 132.547 142.202C132.574 142.287 132.617 142.366 132.675 142.435C132.734 142.496 132.806 142.544 132.886 142.576C132.965 142.607 133.051 142.621 133.136 142.616H135.562C135.688 142.616 135.761 142.67 135.761 142.797V142.897C135.761 143.05 135.706 143.123 135.589 143.123H133.037Z" fill="white"/>
<path d="M139.191 143.123C139.064 143.123 139.001 143.05 139.001 142.915V137.059C139.001 136.824 139.1 136.697 139.299 136.688C139.734 136.652 140.337 136.634 141.109 136.634C141.669 136.573 142.232 136.718 142.693 137.041C142.866 137.258 142.994 137.508 143.07 137.775C143.146 138.042 143.169 138.322 143.137 138.598C143.199 139.15 143.043 139.706 142.702 140.145C142.26 140.465 141.715 140.61 141.173 140.552C140.594 140.552 140.087 140.552 139.661 140.507C139.598 140.507 139.571 140.507 139.571 140.589V142.915C139.574 142.943 139.57 142.971 139.561 142.998C139.551 143.024 139.536 143.048 139.516 143.068C139.496 143.088 139.472 143.103 139.446 143.113C139.419 143.122 139.391 143.126 139.363 143.123H139.191ZM139.698 140.028H141.137C141.364 140.03 141.592 140.009 141.815 139.964C141.975 139.923 142.121 139.842 142.241 139.729C142.369 139.615 142.458 139.463 142.494 139.294C142.542 139.065 142.564 138.832 142.558 138.598C142.605 138.191 142.499 137.781 142.259 137.448C141.935 137.213 141.535 137.107 141.137 137.15H139.761C139.652 137.15 139.607 137.204 139.607 137.312V139.919C139.604 139.932 139.604 139.945 139.607 139.958C139.611 139.971 139.617 139.983 139.626 139.993C139.635 140.002 139.646 140.01 139.659 140.014C139.671 140.019 139.684 140.02 139.698 140.019V140.028Z" fill="white"/>
<path d="M148.576 143.231C148.073 143.256 147.572 143.143 147.128 142.906C146.756 142.662 146.483 142.292 146.359 141.865C146.182 141.229 146.102 140.57 146.123 139.91C146.045 139.017 146.237 138.121 146.676 137.34C146.909 137.072 147.204 136.864 147.535 136.735C147.866 136.605 148.223 136.558 148.576 136.597C149.089 136.589 149.601 136.631 150.106 136.724C150.132 136.728 150.156 136.738 150.178 136.752C150.2 136.767 150.219 136.786 150.233 136.808C150.246 136.831 150.255 136.856 150.258 136.882C150.261 136.908 150.259 136.934 150.25 136.959V137.05C150.25 137.177 150.16 137.231 150.024 137.204C149.635 137.204 149.119 137.14 148.585 137.14C148.316 137.11 148.044 137.15 147.795 137.256C147.546 137.362 147.328 137.532 147.164 137.747C146.633 139.143 146.633 140.686 147.164 142.082C147.33 142.296 147.547 142.464 147.796 142.57C148.045 142.676 148.316 142.717 148.585 142.688C149.111 142.697 149.637 142.673 150.16 142.616C150.185 142.607 150.212 142.605 150.238 142.609C150.264 142.612 150.289 142.622 150.311 142.637C150.333 142.652 150.351 142.671 150.364 142.694C150.377 142.718 150.385 142.743 150.386 142.77V142.851C150.405 142.898 150.405 142.95 150.386 142.996C150.354 143.043 150.306 143.075 150.25 143.087C149.7 143.198 149.138 143.247 148.576 143.231Z" fill="white"/>
<path d="M153.69 143.123C153.563 143.123 153.5 143.05 153.5 142.915V136.914C153.5 136.778 153.563 136.706 153.69 136.706H153.898C153.926 136.703 153.954 136.707 153.981 136.716C154.007 136.726 154.031 136.741 154.051 136.761C154.071 136.781 154.087 136.805 154.096 136.831C154.106 136.858 154.109 136.886 154.106 136.914V138.779C154.106 138.99 154.106 139.207 154.106 139.43C154.106 139.494 154.106 139.521 154.188 139.521H154.875C154.989 139.538 155.105 139.538 155.219 139.521C155.323 139.496 155.423 139.459 155.518 139.412C155.622 139.359 155.717 139.288 155.799 139.204C155.882 139.124 155.961 139.04 156.034 138.951C156.114 138.846 156.184 138.734 156.242 138.616C156.312 138.502 156.375 138.384 156.432 138.263C156.477 138.172 156.541 138.036 156.613 137.855L156.785 137.421L156.957 136.969C156.961 136.951 156.961 136.932 156.957 136.914C156.971 136.864 157.003 136.821 157.046 136.791C157.088 136.761 157.14 136.747 157.192 136.751H157.391C157.473 136.751 157.518 136.751 157.545 136.824C157.557 136.852 157.563 136.883 157.563 136.914C157.563 136.945 157.557 136.976 157.545 137.005C157.446 137.267 157.364 137.457 157.319 137.593C157.274 137.729 157.192 137.91 157.093 138.127C156.993 138.344 156.921 138.516 156.857 138.634C156.782 138.778 156.697 138.917 156.604 139.05C156.521 139.181 156.423 139.302 156.314 139.412C156.21 139.5 156.098 139.579 155.98 139.647C155.857 139.71 155.726 139.756 155.59 139.783C155.711 139.803 155.829 139.833 155.943 139.874C156.058 139.916 156.162 139.98 156.251 140.064L156.514 140.308C156.606 140.413 156.685 140.528 156.749 140.652C156.839 140.797 156.912 140.924 156.966 141.032C157.02 141.141 157.093 141.295 157.174 141.494L157.373 141.982C157.373 142.109 157.491 142.29 157.591 142.534C157.69 142.779 157.672 142.788 157.699 142.851C157.726 142.915 157.699 142.987 157.699 143.032C157.682 143.056 157.658 143.074 157.631 143.085C157.604 143.096 157.574 143.1 157.545 143.096H157.319C157.267 143.1 157.215 143.086 157.172 143.056C157.129 143.026 157.098 142.983 157.084 142.933L156.975 142.625C156.903 142.417 156.848 142.263 156.803 142.163C156.758 142.064 156.704 141.928 156.64 141.747L156.468 141.358C156.468 141.267 156.369 141.159 156.305 141.023C156.252 140.915 156.188 140.812 156.115 140.715C156.061 140.643 155.998 140.562 155.916 140.471C155.855 140.388 155.778 140.317 155.69 140.263L155.446 140.127C155.357 140.081 155.263 140.047 155.165 140.028C155.06 140.018 154.954 140.018 154.848 140.028H154.16C154.088 140.028 154.061 140.028 154.079 140.118C154.079 140.335 154.079 140.543 154.079 140.752V142.915C154.082 142.943 154.078 142.971 154.069 142.997C154.059 143.024 154.044 143.048 154.024 143.068C154.004 143.088 153.98 143.103 153.954 143.113C153.927 143.122 153.899 143.126 153.871 143.123H153.69Z" fill="white"/>
<path d="M161.038 143.123C160.912 143.123 160.848 143.05 160.848 142.915V136.914C160.848 136.778 160.912 136.706 161.038 136.706H161.229C161.364 136.706 161.428 136.778 161.428 136.914V142.1V142.172C161.428 142.172 161.428 142.172 161.5 142.172L161.762 141.711L164.767 136.887C164.791 136.844 164.827 136.808 164.87 136.784C164.913 136.76 164.962 136.749 165.012 136.751H165.274C165.41 136.751 165.473 136.824 165.473 136.959V142.96C165.473 143.096 165.41 143.168 165.274 143.168H165.084C164.948 143.168 164.885 143.096 164.885 142.96V137.774C164.885 137.729 164.885 137.702 164.885 137.702C164.885 137.702 164.84 137.702 164.821 137.747L164.586 138.172L161.554 143.032C161.529 143.074 161.493 143.109 161.45 143.133C161.407 143.157 161.359 143.169 161.31 143.168L161.038 143.123Z" fill="white"/>
<path d="M169.283 143.123C169.148 143.123 169.084 143.05 169.084 142.915V136.914C169.084 136.778 169.148 136.706 169.283 136.706H169.464C169.492 136.703 169.521 136.707 169.547 136.716C169.574 136.726 169.598 136.741 169.618 136.761C169.638 136.781 169.653 136.805 169.662 136.831C169.672 136.858 169.675 136.886 169.672 136.914V142.1V142.172C169.672 142.172 169.673 142.172 169.736 142.172L170.007 141.711L173.012 136.887C173.035 136.845 173.069 136.81 173.111 136.786C173.152 136.762 173.2 136.75 173.247 136.751H173.51C173.538 136.749 173.566 136.752 173.593 136.761C173.619 136.771 173.643 136.786 173.663 136.806C173.683 136.826 173.698 136.85 173.708 136.877C173.717 136.903 173.721 136.931 173.718 136.959V142.96C173.721 142.988 173.717 143.016 173.708 143.043C173.698 143.069 173.683 143.093 173.663 143.113C173.643 143.133 173.619 143.148 173.593 143.158C173.566 143.167 173.538 143.171 173.51 143.168H173.329C173.301 143.171 173.272 143.167 173.246 143.158C173.219 143.148 173.195 143.133 173.175 143.113C173.155 143.093 173.14 143.069 173.131 143.043C173.121 143.016 173.118 142.988 173.121 142.96V137.774C173.121 137.729 173.121 137.702 173.121 137.702C173.121 137.702 173.121 137.702 173.066 137.747C172.967 137.919 172.894 138.064 172.822 138.172L169.79 143.032C169.766 143.076 169.731 143.111 169.688 143.135C169.644 143.159 169.595 143.171 169.546 143.168L169.283 143.123ZM171.428 136.154C171.102 136.159 170.783 136.054 170.523 135.855C170.404 135.762 170.306 135.644 170.236 135.51C170.166 135.376 170.125 135.228 170.116 135.077C170.116 134.977 170.161 134.932 170.261 134.932H170.442C170.523 134.932 170.578 134.977 170.596 135.077C170.603 135.181 170.63 135.283 170.677 135.376C170.724 135.469 170.788 135.552 170.867 135.62C171.04 135.755 171.255 135.822 171.474 135.81C171.689 135.82 171.901 135.753 172.071 135.62C172.15 135.553 172.215 135.47 172.26 135.376C172.305 135.283 172.33 135.181 172.333 135.077C172.333 134.977 172.397 134.932 172.487 134.932H172.659C172.768 134.932 172.822 134.977 172.813 135.077C172.806 135.279 172.74 135.474 172.623 135.638C172.508 135.806 172.348 135.938 172.161 136.018C171.931 136.119 171.68 136.166 171.428 136.154Z" fill="white"/>
<path d="M183.321 143.195C182.651 143.195 182.09 143.195 181.628 143.195C181.534 143.19 181.444 143.151 181.375 143.087C181.315 143.012 181.284 142.919 181.284 142.824V137.113C181.282 137.014 181.318 136.917 181.384 136.842C181.453 136.777 181.543 136.739 181.637 136.733H183.23C183.791 136.733 184.352 136.733 184.895 136.733C184.923 136.731 184.95 136.736 184.975 136.747C185.001 136.758 185.023 136.775 185.04 136.797C185.051 136.822 185.057 136.85 185.057 136.878C185.057 136.906 185.051 136.934 185.04 136.959V137.068C185.036 137.117 185.013 137.162 184.977 137.195C184.933 137.212 184.885 137.212 184.841 137.195H182.017C181.918 137.195 181.863 137.249 181.863 137.358V139.448C181.862 139.459 181.863 139.471 181.867 139.481C181.87 139.492 181.876 139.501 181.884 139.509C181.892 139.517 181.902 139.523 181.912 139.527C181.923 139.53 181.934 139.531 181.945 139.53H183.375C183.79 139.514 184.204 139.575 184.597 139.711C184.869 139.82 185.092 140.026 185.221 140.29C185.369 140.632 185.434 141.004 185.411 141.376C185.416 141.681 185.379 141.986 185.303 142.281C185.232 142.505 185.089 142.699 184.895 142.833C184.7 142.968 184.478 143.058 184.244 143.096C183.939 143.15 183.63 143.183 183.321 143.195ZM183.411 142.679C183.808 142.722 184.208 142.626 184.542 142.408C184.66 142.264 184.747 142.097 184.798 141.918C184.85 141.739 184.864 141.552 184.841 141.367C184.883 140.991 184.776 140.614 184.542 140.317C184.212 140.088 183.81 139.988 183.411 140.037H181.981C181.927 140.037 181.9 140.037 181.891 140.127V142.507C181.888 142.528 181.89 142.549 181.896 142.568C181.902 142.588 181.912 142.606 181.926 142.622C181.94 142.637 181.957 142.649 181.976 142.658C181.994 142.666 182.015 142.67 182.035 142.67L183.411 142.679Z" fill="white"/>
<path d="M189.701 143.177C189.397 143.201 189.092 143.176 188.796 143.105C188.678 143.105 188.633 142.996 188.66 142.842C188.687 142.688 188.76 142.625 188.896 142.643H189.33C189.435 142.657 189.542 142.657 189.647 142.643C189.729 142.616 189.808 142.579 189.882 142.535C189.955 142.477 190.017 142.407 190.063 142.326C190.129 142.231 190.184 142.127 190.226 142.019C190.268 141.916 190.332 141.762 190.416 141.557L190.488 141.349C190.488 141.277 190.488 141.24 190.425 141.24H190.154C190.027 141.249 189.902 141.215 189.798 141.142C189.694 141.07 189.618 140.964 189.583 140.842L188.135 136.941C188.122 136.915 188.115 136.885 188.115 136.855C188.115 136.826 188.122 136.796 188.135 136.769C188.153 136.746 188.176 136.728 188.204 136.717C188.231 136.705 188.26 136.702 188.289 136.706H188.497C188.547 136.705 188.595 136.72 188.635 136.749C188.674 136.779 188.702 136.821 188.715 136.869L190.054 140.552C190.07 140.604 190.103 140.649 190.147 140.68C190.191 140.711 190.244 140.727 190.298 140.724H190.624C190.647 140.727 190.67 140.721 190.688 140.708C190.707 140.694 190.719 140.674 190.724 140.652L192.099 136.86C192.118 136.813 192.151 136.773 192.193 136.746C192.235 136.718 192.284 136.704 192.335 136.706H192.552C192.581 136.703 192.61 136.707 192.637 136.718C192.664 136.729 192.688 136.747 192.706 136.769C192.719 136.796 192.726 136.826 192.726 136.855C192.726 136.885 192.719 136.915 192.706 136.941L191.004 141.566C190.932 141.765 190.869 141.928 190.814 142.055C190.761 142.2 190.694 142.339 190.615 142.471C190.547 142.602 190.462 142.724 190.362 142.833C190.271 142.926 190.167 143.005 190.054 143.068C189.944 143.126 189.824 143.163 189.701 143.177Z" fill="white"/>
<path d="M197.394 143.123C197.366 143.126 197.337 143.122 197.311 143.113C197.284 143.103 197.26 143.088 197.24 143.068C197.22 143.048 197.205 143.024 197.196 142.997C197.186 142.971 197.183 142.943 197.186 142.915V137.303C197.186 137.24 197.186 137.213 197.095 137.213H195.285C195.257 137.218 195.228 137.215 195.2 137.207C195.173 137.198 195.148 137.183 195.127 137.162C195.107 137.142 195.092 137.117 195.083 137.09C195.074 137.062 195.072 137.033 195.077 137.005V136.878C195.072 136.85 195.074 136.821 195.083 136.793C195.092 136.766 195.107 136.741 195.127 136.72C195.148 136.7 195.173 136.685 195.2 136.676C195.228 136.667 195.257 136.665 195.285 136.67H199.756C199.892 136.67 199.955 136.742 199.955 136.878V137.005C199.955 137.14 199.892 137.213 199.756 137.213H197.946C197.934 137.211 197.921 137.213 197.91 137.217C197.898 137.221 197.887 137.227 197.879 137.236C197.87 137.245 197.863 137.255 197.859 137.267C197.855 137.279 197.854 137.291 197.855 137.303V142.878C197.86 142.907 197.858 142.936 197.849 142.963C197.84 142.991 197.825 143.016 197.805 143.036C197.784 143.056 197.759 143.072 197.732 143.08C197.705 143.089 197.676 143.091 197.647 143.087L197.394 143.123Z" fill="white"/>
<path d="M203.095 143.123C202.959 143.123 202.896 143.05 202.896 142.915V136.914C202.896 136.778 202.959 136.706 203.095 136.706H203.276C203.304 136.703 203.333 136.707 203.359 136.716C203.386 136.726 203.41 136.741 203.43 136.761C203.45 136.781 203.465 136.805 203.474 136.831C203.484 136.858 203.487 136.886 203.484 136.914V142.1V142.172C203.484 142.172 203.484 142.172 203.548 142.172L203.819 141.711L206.824 136.887C206.848 136.844 206.883 136.808 206.927 136.784C206.97 136.76 207.019 136.749 207.068 136.751H207.322C207.35 136.748 207.378 136.752 207.405 136.761C207.431 136.771 207.455 136.786 207.475 136.806C207.495 136.826 207.51 136.85 207.52 136.877C207.529 136.903 207.533 136.931 207.53 136.959V142.96C207.533 142.988 207.529 143.016 207.52 143.043C207.51 143.069 207.495 143.093 207.475 143.113C207.455 143.133 207.431 143.148 207.405 143.158C207.378 143.167 207.35 143.171 207.322 143.168H207.141C207.113 143.171 207.084 143.167 207.058 143.158C207.031 143.148 207.007 143.133 206.987 143.113C206.967 143.093 206.952 143.069 206.943 143.043C206.933 143.016 206.93 142.988 206.933 142.96V137.774C206.933 137.729 206.933 137.702 206.933 137.702C206.933 137.702 206.887 137.702 206.869 137.747C206.779 137.919 206.697 138.064 206.625 138.172L203.593 143.032C203.57 143.074 203.536 143.109 203.494 143.133C203.453 143.157 203.406 143.169 203.358 143.168L203.095 143.123Z" fill="white"/>
<path d="M211.331 143.123C211.205 143.123 211.141 143.05 211.141 142.915V136.914C211.141 136.778 211.205 136.706 211.331 136.706H211.539C211.675 136.706 211.739 136.778 211.739 136.914V138.779C211.739 138.99 211.739 139.207 211.739 139.43C211.739 139.494 211.739 139.521 211.829 139.521H212.517C212.631 139.538 212.747 139.538 212.861 139.521C212.964 139.496 213.064 139.459 213.159 139.412C213.262 139.361 213.355 139.29 213.431 139.204C213.517 139.124 213.599 139.04 213.675 138.951C213.756 138.846 213.825 138.734 213.883 138.616C213.953 138.502 214.017 138.384 214.074 138.263C214.119 138.172 214.182 138.036 214.255 137.855L214.427 137.421L214.598 136.969C214.602 136.951 214.602 136.932 214.598 136.914C214.613 136.864 214.644 136.821 214.687 136.791C214.73 136.761 214.782 136.747 214.834 136.751H215.033C215.063 136.747 215.093 136.751 215.121 136.764C215.148 136.777 215.171 136.798 215.187 136.824C215.199 136.852 215.205 136.883 215.205 136.914C215.205 136.945 215.199 136.976 215.187 137.005C215.087 137.267 215.006 137.457 214.96 137.593C214.915 137.729 214.834 137.91 214.734 138.127C214.635 138.344 214.562 138.516 214.499 138.634C214.423 138.778 214.338 138.917 214.245 139.05C214.162 139.181 214.065 139.302 213.956 139.412C213.851 139.5 213.739 139.579 213.621 139.647C213.498 139.71 213.367 139.756 213.232 139.783H213.187C213.187 139.783 213.187 139.783 213.232 139.783C213.349 139.803 213.464 139.833 213.576 139.874C213.693 139.915 213.801 139.979 213.893 140.064L214.155 140.308C214.247 140.413 214.326 140.528 214.39 140.652C214.481 140.797 214.553 140.924 214.608 141.032C214.662 141.141 214.734 141.295 214.816 141.494L215.015 141.982C215.015 142.109 215.132 142.29 215.232 142.534C215.332 142.779 215.313 142.788 215.341 142.851C215.368 142.915 215.341 142.987 215.341 143.032C215.323 143.056 215.299 143.074 215.272 143.085C215.245 143.096 215.216 143.1 215.187 143.096H214.96C214.908 143.1 214.857 143.086 214.814 143.056C214.771 143.026 214.74 142.983 214.725 142.933L214.617 142.625C214.544 142.417 214.481 142.263 214.445 142.163C214.408 142.064 214.345 141.928 214.282 141.747L214.11 141.358C214.11 141.267 214.01 141.159 213.938 141.023C213.89 140.913 213.83 140.81 213.757 140.715C213.702 140.643 213.639 140.562 213.558 140.471C213.495 140.389 213.418 140.319 213.331 140.263L213.087 140.127C212.999 140.081 212.904 140.047 212.806 140.028C212.701 140.018 212.595 140.018 212.49 140.028H211.802C211.73 140.028 211.702 140.028 211.711 140.118C211.711 140.335 211.711 140.543 211.711 140.752V142.915C211.711 143.05 211.648 143.123 211.512 143.123H211.331Z" fill="white"/>
<path d="M28.7131 92.6218H25.0206V92.1059H40.3157V92.6218C39.1572 92.6218 39.4106 95.7985 38.9853 97.6448C34.8311 116.334 6.32255 116.515 0.973795 96.432C-0.231917 91.9429 0.125953 87.1771 1.98855 82.9184C3.85115 78.6597 7.10758 75.1616 11.2223 72.9995C15.337 70.8373 20.0651 70.1398 24.6289 71.0217C29.1927 71.9035 33.3205 74.3122 36.3335 77.8516L34.9488 82.9289H34.4239C30.849 75.761 23.8712 69.5977 15.563 71.7879C5.60757 74.4487 2.63001 86.3318 5.0012 95.3188C8.06022 106.623 17.8074 111.356 26.1157 109.854C33.9623 108.188 34.8311 102.469 34.8854 98.1425C34.8311 93.1377 31.6545 92.6218 28.7131 92.6218Z" fill="white"/>
<path d="M51.5475 71.444C51.1945 71.444 50.2171 72.0776 50.2171 75.8877V109.32C50.2171 109.728 50.3792 110.119 50.6677 110.408C50.9562 110.696 51.3476 110.858 51.7556 110.858H56.7333C61.2002 110.466 65.5018 108.98 69.259 106.532H69.7749V111.438H64.8153L63.3129 111.374H44.7325V110.858C45.0765 110.858 46.0629 110.225 46.0629 106.415V75.8877C46.0629 72.0776 45.0765 71.444 44.7325 71.444V70.9282H51.5475V71.444Z" fill="white"/>
<path d="M123.679 71.2358C127.42 70.2259 131.371 70.3024 135.071 71.4564C138.77 72.6104 142.064 74.7942 144.567 77.7521L143.246 82.8112H142.73C139.11 75.6615 132.105 69.4801 123.797 71.6793C113.841 74.3311 110.873 86.2142 113.298 95.2102C118.493 114.542 143.363 114.596 146.784 97.4004L147.246 97.518C143.553 116.27 114.583 116.388 109.234 96.3053C108.535 93.7108 108.354 91.0038 108.701 88.3391C109.049 85.6745 109.918 83.1045 111.26 80.7762C112.601 78.4478 114.389 76.4067 116.52 74.7697C118.651 73.1327 121.083 71.9318 123.679 71.2358ZM124.204 118.551L124.43 116.298C125.932 116.994 130.955 119.239 130.955 116.415C130.955 115.148 128.068 114.795 127.145 114.795L128.123 111.392H128.765L128.123 113.474C130.376 113.7 131.471 114.623 131.471 116.298C131.48 120.108 126.738 119.393 124.24 118.533L124.204 118.551Z" fill="white"/>
<path d="M209.594 92.6219H205.901V92.106H221.196V92.6219C220.038 92.6219 220.291 95.7985 219.866 97.6448C215.712 116.334 187.212 116.515 181.854 96.432C180.644 91.9409 181 87.1715 182.862 82.9093C184.724 78.6471 187.983 75.1461 192.1 72.9829C196.218 70.8198 200.95 70.1233 205.516 71.0083C210.083 71.8932 214.211 74.3069 217.223 77.8517L215.838 82.9289H215.322C211.702 75.7701 204.761 69.5978 196.452 71.788C186.497 74.4488 183.529 86.3319 185.891 95.3189C188.95 106.623 198.697 111.356 207.014 109.854C214.861 108.188 215.721 102.469 215.784 98.1426C215.712 93.1377 212.544 92.6219 209.594 92.6219Z" fill="white"/>
<path d="M229.332 96.5768C231.36 92.4408 234.898 88.0786 239.659 87.5898C241.469 87.436 243.994 87.97 245.089 89.6262L244.664 88.4315C243.154 87.2656 241.259 86.7157 239.36 86.893C237.467 87.0104 235.629 87.5773 233.998 88.5469C232.368 89.5164 230.991 90.8606 229.984 92.468L229.332 96.5768Z" fill="white"/>
<path d="M236.7 110.858H232.111C229.866 110.858 230.192 110.216 230.192 106.415V75.3175C230.283 72.0232 229.866 71.444 232.283 71.444H236.709C237.36 71.5254 237.976 71.5978 238.519 71.6974C238.872 71.7517 239.206 71.806 239.514 71.8784C242.977 72.5247 246.279 73.8438 249.234 75.761H249.75V70.8647H244.791H243.759H243.288H224.699V71.3806C225.043 71.3806 226.029 72.0141 226.029 75.8243V106.351C226.029 109.917 225.124 110.695 224.771 110.786H224.699V111.302H243.279L244.781 111.365H249.741V106.532H249.225C245.468 108.98 241.166 110.466 236.7 110.858Z" fill="white"/>
<path d="M103.107 103.012L92.0837 70.8738H87.7033L88.7984 74.0414L81.6848 94.8572C80.6167 96.0865 79.6625 97.4102 78.834 98.8122C79.0385 98.8356 79.2449 98.8356 79.4494 98.8122C79.9829 97.945 80.5599 97.1053 81.178 96.2962L78.5263 104.07C76.7162 109.265 75.069 110.822 74.2002 110.822V111.338H79.1055V110.822C77.6031 110.822 77.4855 108.632 79.0421 104.242L81.8749 95.8166C82.0668 95.3206 82.3776 94.8793 82.7799 94.5314L82.97 94.3685C84.3505 93.4267 86.0261 93.0183 87.6852 93.2191C93.3417 93.7983 97.7402 99.9345 99.4507 104.985L99.505 105.138C100.537 108.369 100.6 110.795 100.193 110.795V111.311H106.944V110.795C106.048 110.858 104.609 107.338 103.107 103.012ZM88.0925 92.3774C86.1009 92.1996 84.1165 92.7887 82.5446 94.0246L89.088 74.856L96.8623 97.2194C95.7984 95.867 94.4741 94.7418 92.9678 93.9101C91.4615 93.0784 89.8037 92.5573 88.0925 92.3774Z" fill="white"/>
<path d="M177.32 103.012L166.306 70.8738H161.916L163.012 74.0414L155.898 94.8572C154.831 96.0855 153.88 97.4094 153.056 98.8122C153.258 98.8354 153.461 98.8354 153.663 98.8122C154.199 97.9446 154.779 97.1049 155.4 96.2962L152.739 104.07C150.929 109.265 149.282 110.822 148.413 110.822V111.338H153.319V110.822C151.816 110.822 151.708 108.632 153.264 104.242L156.088 95.8166C156.284 95.3228 156.594 94.8824 156.993 94.5314L157.183 94.3685C158.563 93.4244 160.239 93.0158 161.898 93.2191C167.555 93.7983 171.944 99.9345 173.664 104.985L173.718 105.138C174.759 108.369 174.813 110.795 174.406 110.795V111.311H181.157V110.795C180.271 110.858 178.822 107.338 177.32 103.012ZM162.306 92.3774C160.314 92.2005 158.33 92.7896 156.758 94.0246L163.301 74.856L171.084 97.2194C170.018 95.8671 168.693 94.742 167.185 93.9104C165.677 93.0789 164.018 92.5576 162.306 92.3774Z" fill="white"/>
<path d="M127.082 152.689C126.548 152.871 126.073 153.194 125.708 153.625C125.343 154.055 125.102 154.576 125.009 155.133C124.907 154.577 124.66 154.059 124.293 153.629C123.925 153.2 123.451 152.876 122.918 152.689C123.461 152.499 123.941 152.165 124.309 151.724C124.677 151.282 124.919 150.75 125.009 150.182C125.088 150.751 125.323 151.287 125.69 151.73C126.056 152.172 126.538 152.505 127.082 152.689Z" fill="white"/>
</svg>
