<svg width="24" height="24" viewBox="0 0 24 24" fill="none" xmlns="http://www.w3.org/2000/svg">
<path fill-rule="evenodd" clip-rule="evenodd" d="M18 3V0H16.5V3H7.5V0H6V3C6 3.39782 6.15804 3.77936 6.43934 4.06066C6.72064 4.34196 7.10218 4.5 7.5 4.5H16.5C16.8978 4.5 17.2794 4.34196 17.5607 4.06066C17.842 3.77936 18 3.39782 18 3ZM19.5 7.5V16.5C19.5 16.8978 19.342 17.2794 19.0607 17.5607C18.7794 17.842 18.3978 18 18 18H6C5.60218 18 5.22064 17.842 4.93934 17.5607C4.65804 17.2794 4.5 16.8978 4.5 16.5V7.5C4.5 7.10218 4.65804 6.72064 4.93934 6.43934C5.22064 6.15804 5.60218 6 6 6H18C18.3978 6 18.7794 6.15804 19.0607 6.43934C19.342 6.72064 19.5 7.10218 19.5 7.5ZM6 16.5H18V7.5H6V16.5ZM18 21V24H16.5V21H7.5V24H6V21C6 20.6022 6.15804 20.2206 6.43934 19.9393C6.72064 19.658 7.10218 19.5 7.5 19.5H16.5C16.8978 19.5 17.2794 19.658 17.5607 19.9393C17.842 20.2206 18 20.6022 18 21Z" fill="#63142C"/>
</svg>
