<svg width="44" height="44" viewBox="0 0 44 44" fill="none" xmlns="http://www.w3.org/2000/svg">
<path fill-rule="evenodd" clip-rule="evenodd" d="M5.5 8.25H38.5C39.2293 8.25 39.9288 8.53973 40.4445 9.05546C40.9603 9.57118 41.25 10.2707 41.25 11V33C41.25 33.7293 40.9603 34.4288 40.4445 34.9445C39.9288 35.4603 39.2293 35.75 38.5 35.75H5.5C4.77065 35.75 4.07118 35.4603 3.55546 34.9445C3.03973 34.4288 2.75 33.7293 2.75 33V11C2.75 10.2707 3.03973 9.57118 3.55546 9.05546C4.07118 8.53973 4.77065 8.25 5.5 8.25ZM38.5 15.125V11H5.5V15.125H38.5ZM5.5 17.875V33H38.5V17.875H5.5ZM8.25 27.5H22V30.25H8.25V27.5Z" fill="#63142C"/>
</svg>
