<svg width="44" height="44" viewBox="0 0 44 44" fill="none" xmlns="http://www.w3.org/2000/svg">
<path d="M41.25 16.5V5.5H30.25V9.625H24.75C24.0209 9.62584 23.3219 9.91584 22.8064 10.4314C22.2908 10.9469 22.0008 11.6459 22 12.375V20.625H13.75V16.5H2.75V27.5H13.75V23.375H22V31.625C22.0008 32.3541 22.2908 33.0531 22.8064 33.5686C23.3219 34.0842 24.0209 34.3742 24.75 34.375H30.25V38.5H41.25V27.5H30.25V31.625H24.75V12.375H30.25V16.5H41.25ZM11 24.75H5.5V19.25H11V24.75ZM33 30.25H38.5V35.75H33V30.25ZM33 8.25H38.5V13.75H33V8.25Z" fill="#63142C"/>
</svg>
