<svg width="44" height="44" viewBox="0 0 44 44" fill="none" xmlns="http://www.w3.org/2000/svg">
<path d="M35.75 13.75H31.9527C32.8476 12.4272 33.1948 10.8089 32.921 9.23544C32.6473 7.66198 31.774 6.256 30.4848 5.31323C29.1957 4.37045 27.5911 3.96436 26.0087 4.18036C24.4263 4.39637 22.9893 5.21764 22 6.47143C21.0085 5.22384 19.5728 4.40825 17.9934 4.19548C16.4141 3.9827 14.8137 4.38923 13.5274 5.32993C12.2411 6.27064 11.3686 7.67255 11.0927 9.24208C10.8168 10.8116 11.1589 12.427 12.0473 13.75H8.25C7.52093 13.7509 6.82199 14.0409 6.30646 14.5565C5.79093 15.072 5.50091 15.7709 5.5 16.5V22C5.50091 22.7291 5.79093 23.428 6.30646 23.9435C6.82199 24.4591 7.52093 24.7491 8.25 24.75V38.5C8.25091 39.2291 8.54093 39.928 9.05646 40.4435C9.57199 40.9591 10.2709 41.2491 11 41.25H33C33.7291 41.2491 34.428 40.9591 34.9435 40.4435C35.4591 39.928 35.7491 39.2291 35.75 38.5V24.75C36.4791 24.7491 37.178 24.4591 37.6935 23.9435C38.2091 23.428 38.4991 22.7291 38.5 22V16.5C38.4991 15.7709 38.2091 15.072 37.6935 14.5565C37.178 14.0409 36.4791 13.7509 35.75 13.75ZM23.375 10.3125C23.375 9.63262 23.5766 8.96801 23.9543 8.40272C24.332 7.83742 24.8689 7.39683 25.497 7.13665C26.1251 6.87648 26.8163 6.8084 27.4831 6.94104C28.1499 7.07368 28.7624 7.40107 29.2432 7.88181C29.7239 8.36255 30.0513 8.97506 30.184 9.64187C30.3166 10.3087 30.2485 10.9998 29.9883 11.628C29.7282 12.2561 29.2876 12.7929 28.7223 13.1707C28.157 13.5484 27.4924 13.75 26.8125 13.75H23.375V10.3125ZM17.1875 6.87499C18.0988 6.87608 18.9726 7.2386 19.617 7.88302C20.2614 8.52744 20.6239 9.40114 20.625 10.3125V13.75H17.1875C16.2758 13.75 15.4015 13.3878 14.7568 12.7432C14.1122 12.0985 13.75 11.2242 13.75 10.3125C13.75 9.40081 14.1122 8.52647 14.7568 7.88181C15.4015 7.23715 16.2758 6.87499 17.1875 6.87499ZM8.25 16.5H20.625V22H8.25V16.5ZM11 24.75H20.625V38.5H11V24.75ZM33.0016 38.5H23.375V24.75H33L33.0016 38.5ZM23.375 22V16.5H35.75L35.7516 22H23.375Z" fill="#63142C"/>
</svg>
