<svg width="24" height="24" viewBox="0 0 24 24" fill="none" xmlns="http://www.w3.org/2000/svg">
    <g clip-path="url(#clip0_218_1128)">
        <path d="M0.00012207 24L1.6964 17.8403C0.647686 16.0323 0.0975432 13.9848 0.103274 11.8916C0.103274 5.3327 5.46717 0 12.0517 0C15.2494 0 18.2523 1.23764 20.5044 3.48479C22.7623 5.73194 24.0058 8.72053 24.0001 11.8973C24.0001 18.4563 18.6362 23.789 12.046 23.789H12.0402C10.0402 23.789 8.07461 23.2871 6.32677 22.3403L0.00012207 24ZM6.63049 20.1901L6.99152 20.4068C8.51587 21.308 10.2637 21.7814 12.046 21.7871H12.0517C17.5245 21.7871 21.9829 17.3555 21.9829 11.903C21.9829 9.26236 20.9514 6.78137 19.0775 4.91065C17.2035 3.03992 14.705 2.01331 12.0517 2.01331C6.57891 2.0076 2.12046 6.43916 2.12046 11.8916C2.12046 13.7567 2.64195 15.576 3.63909 17.1502L3.87404 17.5266L2.87118 21.1711L6.63049 20.1901Z"
              fill="white"/>
        <path d="M0.418335 23.5837L2.0573 17.635C1.04298 15.8954 0.510025 13.9164 0.510025 11.8973C0.515756 5.56654 5.69054 0.416351 12.0516 0.416351C15.1404 0.416351 18.0344 1.61407 20.212 3.78137C22.3897 5.94867 23.5874 8.8346 23.5874 11.903C23.5874 18.2338 18.4069 23.384 12.0516 23.384H12.0458C10.1146 23.384 8.21776 22.8992 6.53294 21.9867L0.418335 23.5837Z"
              fill="#63142C"/>
        <path d="M0.00012207 24L1.6964 17.8403C0.647686 16.0323 0.0975432 13.9848 0.103274 11.8916C0.103274 5.3327 5.46717 0 12.0517 0C15.2494 0 18.2523 1.23764 20.5044 3.48479C22.7623 5.73194 24.0058 8.72053 24.0001 11.8973C24.0001 18.4563 18.6362 23.789 12.046 23.789H12.0402C10.0402 23.789 8.07461 23.2871 6.32677 22.3403L0.00012207 24ZM6.63049 20.1901L6.99152 20.4068C8.51587 21.308 10.2637 21.7814 12.046 21.7871H12.0517C17.5245 21.7871 21.9829 17.3555 21.9829 11.903C21.9829 9.26236 20.9514 6.78137 19.0775 4.91065C17.2035 3.03992 14.705 2.01331 12.0517 2.01331C6.57891 2.0076 2.12046 6.43916 2.12046 11.8916C2.12046 13.7567 2.64195 15.576 3.63909 17.1502L3.87404 17.5266L2.87118 21.1711L6.63049 20.1901Z"
              fill="url(#paint1_linear_218_1128)"/>
        <path fill-rule="evenodd" clip-rule="evenodd"
              d="M9.06588 6.91826C8.84238 6.42206 8.60743 6.41065 8.39539 6.40495C8.22347 6.39925 8.0229 6.39925 7.82233 6.39925C7.62176 6.39925 7.30084 6.47339 7.02577 6.76997C6.7507 7.06655 5.98279 7.78518 5.98279 9.25096C5.98279 10.711 7.05442 12.1255 7.20342 12.3251C7.35241 12.5247 9.27218 15.6217 12.3037 16.8137C14.8252 17.8061 15.3409 17.6065 15.8854 17.5551C16.4298 17.5038 17.6504 16.8365 17.9025 16.1407C18.149 15.4449 18.149 14.8517 18.0745 14.7262C18 14.6008 17.7994 14.5266 17.5014 14.3783C17.2034 14.23 15.7364 13.5114 15.4613 13.4088C15.1862 13.3118 14.9856 13.2605 14.7908 13.557C14.5902 13.8536 14.0172 14.5209 13.8452 14.7205C13.6733 14.9202 13.4957 14.943 13.1977 14.7947C12.8997 14.6464 11.9369 14.3327 10.7965 13.3175C9.90829 12.5304 9.30657 11.5551 9.13465 11.2586C8.96273 10.962 9.11746 10.8023 9.26645 10.654C9.39826 10.5228 9.56445 10.3061 9.71344 10.135C9.86244 9.96389 9.91402 9.83841 10.0114 9.63879C10.1089 9.43917 10.063 9.26807 9.98852 9.11978C9.91402 8.97719 9.32949 7.50571 9.06588 6.91826Z"
              fill="white"/>
    </g>
    <defs>
        <linearGradient id="paint0_linear_218_1128" x1="12.0023" y1="23.5825" x2="12.0023" y2="0.415541"
                        gradientUnits="userSpaceOnUse">
            <stop stop-color="#20B038"/>
            <stop offset="1" stop-color="#60D66A"/>
        </linearGradient>
        <linearGradient id="paint1_linear_218_1128" x1="12.0025" y1="23.9977" x2="12.0025" y2="0"
                        gradientUnits="userSpaceOnUse">
            <stop stop-color="#F9F9F9"/>
            <stop offset="1" stop-color="white"/>
        </linearGradient>
        <clipPath id="clip0_218_1128">
            <rect width="24" height="24" rx="6" fill="white"/>
        </clipPath>
    </defs>
</svg>
