<svg width="34" height="34" viewBox="0 0 34 34" fill="none" xmlns="http://www.w3.org/2000/svg">
<path fill-rule="evenodd" clip-rule="evenodd" d="M20.7456 6.73452C22.1061 6.30091 23.519 6.05382 24.9458 6C31.2596 6 33.5 11.9254 33.5 17C33.5 27.3263 27.9047 33.4986 22.5 33.5C21.3198 33.4375 20.1606 33.1627 19.0779 32.6888C18.419 32.3934 17.7178 32.2032 17 32.125C16.2836 32.2034 15.5839 32.3936 14.9265 32.6888C13.8432 33.1626 12.6835 33.4374 11.5027 33.5H11.5007C6.09336 33.4986 0.5 27.3263 0.5 17C0.5 10.2147 3.67763 6 8.79359 6C10.2751 6.06155 11.7431 6.30878 13.1631 6.7359C13.9335 6.93404 14.6743 7.11664 15.3867 7.2375C15.0607 6.09217 14.3712 5.08388 13.4221 4.36463C12.473 3.64539 11.3158 3.25418 10.125 3.25V0.5C12.0603 0.503146 13.9329 1.18591 15.4161 2.4291C16.8992 3.67228 17.8986 5.3969 18.2397 7.30185C19.0863 7.16657 19.9233 6.97707 20.7456 6.73452ZM20.0381 30.1121C20.8168 30.4621 21.6492 30.6778 22.5 30.75C26.5538 30.7483 30.75 25.6056 30.75 17C30.75 15.622 30.47 8.75 24.9458 8.75C23.7635 8.80965 22.594 9.0241 21.4674 9.38786C20.132 9.8104 18.7475 10.0582 17.3484 10.125H16.6716C15.2504 10.0513 13.843 9.8078 12.4796 9.39983C11.2818 9.03464 10.044 8.81643 8.79359 8.75C3.79051 8.75 3.25 14.5199 3.25 17C3.25 25.6041 7.44411 30.7466 11.5 30.75C12.3522 30.6775 13.1861 30.4619 13.9666 30.1121C14.9258 29.6877 15.953 29.4381 17 29.375C18.0485 29.4379 19.0773 29.6875 20.0381 30.1121ZM18.375 4.625H19.75C20.4791 4.62424 21.1781 4.33426 21.6937 3.8187C22.2093 3.30314 22.4992 2.60411 22.5 1.875V0.5H21.125C20.3959 0.500764 19.6969 0.790741 19.1813 1.3063C18.6657 1.82186 18.3758 2.52089 18.375 3.25V4.625Z" fill="#63142C"/>
</svg>
