<svg width="44" height="44" viewBox="0 0 44 44" fill="none" xmlns="http://www.w3.org/2000/svg">
<path d="M40.3425 21.9175L29.7138 18.095L25.2588 12.5125C24.8721 12.04 24.3854 11.6593 23.8337 11.3977C23.2821 11.1362 22.6793 11.0003 22.0687 11H11.0688C10.3977 11.0035 9.73766 11.1706 9.14584 11.4869C8.55401 11.8032 8.04827 12.259 7.6725 12.815L3.94625 18.315C3.17434 19.4461 2.7578 20.7819 2.75 22.1513V33C2.75 33.3647 2.89487 33.7144 3.15273 33.9723C3.41059 34.2301 3.76033 34.375 4.125 34.375H7.0675C7.38414 35.5401 8.07538 36.5687 9.03457 37.302C9.99376 38.0353 11.1676 38.4326 12.375 38.4326C13.5824 38.4326 14.7562 38.0353 15.7154 37.302C16.6746 36.5687 17.3659 35.5401 17.6825 34.375H26.3175C26.6341 35.5401 27.3254 36.5687 28.2846 37.302C29.2438 38.0353 30.4176 38.4326 31.625 38.4326C32.8324 38.4326 34.0062 38.0353 34.9654 37.302C35.9246 36.5687 36.6159 35.5401 36.9325 34.375H39.875C40.2397 34.375 40.5894 34.2301 40.8473 33.9723C41.1051 33.7144 41.25 33.3647 41.25 33V23.21C41.2499 22.9274 41.1627 22.6517 41.0003 22.4205C40.8379 22.1892 40.6082 22.0136 40.3425 21.9175ZM12.375 35.75C11.8311 35.75 11.2994 35.5887 10.8472 35.2865C10.3949 34.9844 10.0425 34.5549 9.83433 34.0524C9.62619 33.5499 9.57173 32.997 9.67784 32.4635C9.78395 31.9301 10.0459 31.4401 10.4305 31.0555C10.8151 30.6709 11.3051 30.4089 11.8385 30.3028C12.3719 30.1967 12.9249 30.2512 13.4274 30.4593C13.9299 30.6675 14.3594 31.0199 14.6615 31.4722C14.9637 31.9244 15.125 32.4561 15.125 33C15.125 33.7293 14.8353 34.4288 14.3195 34.9445C13.8038 35.4603 13.1043 35.75 12.375 35.75ZM31.625 35.75C31.0811 35.75 30.5494 35.5887 30.0972 35.2865C29.6449 34.9844 29.2925 34.5549 29.0843 34.0524C28.8762 33.5499 28.8217 32.997 28.9278 32.4635C29.0339 31.9301 29.2959 31.4401 29.6805 31.0555C30.0651 30.6709 30.5551 30.4089 31.0885 30.3028C31.622 30.1967 32.1749 30.2512 32.6774 30.4593C33.1799 30.6675 33.6094 31.0199 33.9115 31.4722C34.2137 31.9244 34.375 32.4561 34.375 33C34.375 33.7293 34.0853 34.4288 33.5695 34.9445C33.0538 35.4603 32.3543 35.75 31.625 35.75ZM38.5 31.625H36.9325C36.6159 30.4599 35.9246 29.4313 34.9654 28.698C34.0062 27.9647 32.8324 27.5674 31.625 27.5674C30.4176 27.5674 29.2438 27.9647 28.2846 28.698C27.3254 29.4313 26.6341 30.4599 26.3175 31.625H17.6825C17.3659 30.4599 16.6746 29.4313 15.7154 28.698C14.7562 27.9647 13.5824 27.5674 12.375 27.5674C11.1676 27.5674 9.99376 27.9647 9.03457 28.698C8.07538 29.4313 7.38414 30.4599 7.0675 31.625H5.5V22.1513C5.49947 21.3224 5.74863 20.5127 6.215 19.8275L9.94125 14.3275C10.0705 14.146 10.2418 13.9986 10.4406 13.898C10.6394 13.7974 10.8597 13.7466 11.0825 13.75H22.0825C22.2845 13.7497 22.4841 13.7939 22.6671 13.8794C22.8501 13.965 23.012 14.0898 23.1413 14.245L27.8162 20.1163C27.9775 20.3117 28.1856 20.4631 28.4212 20.5562L38.5 24.1725V31.625Z" fill="#63142C"/>
</svg>
