<svg width="45" height="45" viewBox="0 0 45 45" fill="none" xmlns="http://www.w3.org/2000/svg">
<path d="M22.5 3.25C18.6927 3.25 14.9709 4.37899 11.8053 6.49421C8.63964 8.60943 6.17231 11.6159 4.71533 15.1333C3.25834 18.6508 2.87713 22.5214 3.61989 26.2555C4.36266 29.9896 6.19604 33.4196 8.8882 36.1118C11.5804 38.804 15.0104 40.6374 18.7445 41.3801C22.4787 42.1229 26.3492 41.7417 29.8667 40.2847C33.3841 38.8277 36.3906 36.3604 38.5058 33.1947C40.621 30.0291 41.75 26.3073 41.75 22.5C41.75 17.3946 39.7219 12.4983 36.1118 8.88819C32.5017 5.27812 27.6054 3.25 22.5 3.25ZM19.75 30.1873L12.875 23.3123L15.0621 21.125L19.75 25.8127L29.9388 15.625L32.1328 17.8056L19.75 30.1873Z" fill="white"/>
</svg>
