<svg width="108" height="21" viewBox="0 0 108 21" fill="none" xmlns="http://www.w3.org/2000/svg">
<path d="M12.2722 9.53682H10.6796V9.31041H17.2765V9.53682C16.7769 9.53682 16.8862 10.903 16.7027 11.7033C14.911 19.764 2.61492 19.8382 0.304036 11.1802C-0.217877 9.2431 -0.0645749 7.18601 0.7387 5.34767C1.54197 3.50933 2.94733 1.99934 4.72335 1.06634C6.49937 0.133334 8.54017 -0.167051 10.5097 0.214644C12.4792 0.596339 14.2601 1.63736 15.559 3.16628L14.9617 5.35615H14.7353C13.1934 2.26847 10.1838 -0.393727 6.60041 0.550924C2.33777 1.69465 1.02228 6.82387 2.045 10.704C3.36439 15.5834 7.56848 17.6249 11.1519 16.9769C14.5363 16.2548 14.911 13.7917 14.9344 11.9258C14.911 9.75541 13.5409 9.53682 12.2722 9.53682Z" fill="#63142C"/>
<path d="M22.1208 0.386971C21.9686 0.386971 21.547 0.660217 21.547 2.3036V16.7388C21.547 16.8258 21.5642 16.9119 21.5976 16.9922C21.631 17.0725 21.6799 17.1454 21.7416 17.2067C21.8033 17.268 21.8764 17.3165 21.9569 17.3494C22.0374 17.3823 22.1236 17.399 22.2106 17.3985H24.3575C26.2841 17.2291 28.1395 16.5883 29.76 15.5326H29.9825V17.6483H27.8434L27.1954 17.6249H19.1815V17.3985C19.3298 17.3985 19.7553 17.1252 19.7553 15.4858V2.33873C19.7553 0.675831 19.3298 0.386971 19.1815 0.386971V0.180084H22.1208V0.386971Z" fill="#63142C"/>
<path d="M53.2317 0.301101C54.8461 -0.132153 56.5504 -0.0972203 58.1457 0.401821C59.7409 0.900862 61.1613 1.84342 62.241 3.11944L61.6711 5.30541H61.4486C59.8872 2.21773 56.8659 -0.44447 53.2824 0.500181C48.9886 1.64781 47.7082 6.77313 48.7543 10.6493C50.995 18.9872 61.7218 19.0107 63.1974 11.594L63.3964 11.6447C61.8038 19.7328 49.3086 19.7836 47.0017 11.1216C46.6993 10.0021 46.6206 8.83389 46.7702 7.68389C46.9197 6.5339 47.2945 5.42467 47.8732 4.41967C48.4518 3.41467 49.2229 2.53361 50.1424 1.8269C51.0619 1.1202 52.1116 0.601709 53.2317 0.301101ZM53.4737 20.7087L53.5713 19.7406C54.2193 20.0373 56.3857 21.0093 56.3857 19.7914C56.3857 19.241 55.1405 19.0926 54.7423 19.0926L55.1639 17.6249H55.4255L55.1483 18.5188C56.1203 18.6203 56.5926 19.0185 56.5926 19.7406C56.5965 21.384 54.5511 21.0756 53.4737 20.7087Z" fill="#63142C"/>
<path d="M90.288 9.5368H88.6954V9.3104H95.2923V9.5368C94.7927 9.5368 94.9019 10.903 94.7185 11.7033C92.9268 19.764 80.6346 19.8382 78.3237 11.1802C77.8037 9.24398 77.958 7.18844 78.7614 5.35161C79.5647 3.51478 80.9693 2.00603 82.744 1.07347C84.5187 0.140907 86.558 -0.159935 88.5264 0.220417C90.4948 0.600769 92.2752 1.63967 93.5748 3.16626L92.9775 5.35614H92.755C91.2092 2.26846 88.2152 -0.393742 84.6162 0.550909C80.3223 1.69464 79.042 6.82386 80.0608 10.7001C81.3802 15.5794 85.5843 17.621 89.1716 16.973C92.5559 16.2509 92.9268 13.7877 92.9541 11.9219C92.9268 9.7554 91.5605 9.5368 90.288 9.5368Z" fill="#63142C"/>
<path d="M98.8015 11.2309C99.6759 9.44704 101.202 7.56554 103.255 7.35475C104.036 7.28839 105.125 7.5187 105.598 8.23305L105.41 7.7334C104.759 7.23087 103.942 6.9925 103.123 7.06589C102.306 7.11727 101.513 7.36254 100.81 7.78137C100.106 8.20021 99.513 8.78056 99.0787 9.47436L98.8015 11.2309Z" fill="#63142C"/>
<path d="M101.979 17.3985H99.9997C99.0316 17.3985 99.1722 17.1252 99.1722 15.4819V2.07329C99.2112 0.648502 99.0316 0.402581 100.074 0.402581H101.983C102.264 0.437712 102.529 0.468941 102.763 0.511879C102.916 0.5353 103.06 0.558721 103.193 0.58995C104.681 0.87471 106.1 1.44612 107.37 2.27237H107.592V0.152756H105.469H105.024H104.821H96.8027V0.386967C96.9511 0.386967 97.3766 0.660213 97.3766 2.30359V15.4858C97.3766 17.0238 96.9862 17.3595 96.834 17.3985H96.8027V17.6249H104.817L105.465 17.6483H107.604V15.5326H107.381C105.761 16.5883 103.905 17.2291 101.979 17.3985Z" fill="#63142C"/>
<path d="M44.3591 14.0141L39.6046 0.152756H37.7153L38.1877 1.52289L35.1273 10.501C34.6671 11.0329 34.2556 11.6051 33.8977 12.2107C33.9859 12.2208 34.075 12.2208 34.1631 12.2107C34.3933 11.8367 34.6421 11.4745 34.9087 11.1255L33.765 14.4787C32.9843 16.7154 32.2738 17.3868 31.8991 17.3868V17.6132H34.0148V17.3868C33.3668 17.3868 33.3161 16.4421 33.9875 14.5528L35.2015 10.9265C35.2824 10.7115 35.4167 10.5207 35.5918 10.3722L35.6738 10.298C36.2704 9.89447 36.9925 9.71982 37.7075 9.80615C40.1472 10.056 42.0443 12.7026 42.7821 14.8807L42.8055 14.9471C43.2505 16.3406 43.2779 17.3829 43.1022 17.3829V17.6093H46.0142V17.3829C45.6278 17.3985 45.0071 15.8839 44.3591 14.0141ZM37.8832 9.43141C37.0237 9.35579 36.1677 9.61132 35.4903 10.1458L38.3126 1.8703L41.6657 11.5159C41.2065 10.9333 40.6352 10.4487 39.9855 10.0907C39.3358 9.73267 38.621 9.50849 37.8832 9.43141Z" fill="#63142C"/>
<path d="M76.3679 14.0141L71.6173 0.152756H69.7241L70.1964 1.52289L67.1282 10.501C66.6686 11.0325 66.2584 11.6048 65.9025 12.2107C65.9894 12.2207 66.0772 12.2207 66.1641 12.2107C66.3953 11.8365 66.6455 11.4743 66.9135 11.1255L65.7659 14.4787C64.9852 16.7154 64.2748 17.3868 63.9 17.3868V17.6132H66.0157V17.3868C65.3677 17.3868 65.3209 16.4421 65.9923 14.5528L67.2102 10.9265C67.2929 10.7125 67.4269 10.5221 67.6006 10.3722L67.6825 10.298C68.2788 9.89381 69.0012 9.7191 69.7163 9.80615C72.156 10.056 74.0492 12.7026 74.7908 14.8807L74.8143 14.9471C75.2632 16.3406 75.2866 17.3829 75.1109 17.3829V17.6093H78.0229V17.3829C77.6404 17.3985 77.0158 15.8839 76.3679 14.0141ZM69.8919 9.43141C69.0324 9.35619 68.1766 9.61168 67.4991 10.1458L70.3213 1.8703L73.6783 11.5159C73.2182 10.9334 72.6462 10.4488 71.9959 10.0908C71.3456 9.73285 70.6302 9.50864 69.8919 9.43141Z" fill="#63142C"/>
</svg>
