<svg width="24" height="24" viewBox="0 0 24 24" fill="none" xmlns="http://www.w3.org/2000/svg">
<path fill-rule="evenodd" clip-rule="evenodd" d="M15.6368 4.67415C14.6878 4.6308 14.4031 4.62165 12 4.62165V4.62157C9.59693 4.62157 9.31222 4.6308 8.36325 4.67408C7.79253 4.68087 7.22723 4.78569 6.69203 4.98397C6.30389 5.13375 5.95141 5.3631 5.65724 5.65728C5.36307 5.95146 5.13373 6.30396 4.98397 6.6921C4.78569 7.22731 4.68087 7.79261 4.67408 8.36333C4.63072 9.3123 4.62157 9.597 4.62157 12.0001C4.62157 14.4031 4.6308 14.6878 4.67408 15.6368C4.68087 16.2075 4.78569 16.7728 4.98397 17.3081C5.13374 17.6962 5.36308 18.0487 5.65725 18.3428C5.95142 18.637 6.3039 18.8663 6.69203 19.0161C7.22723 19.2144 7.79253 19.3192 8.36325 19.326C9.31215 19.3694 9.5967 19.3785 12 19.3785C14.4033 19.3785 14.6879 19.3693 15.6368 19.326C16.2075 19.3192 16.7728 19.2144 17.308 19.0161C17.6961 18.8663 18.0486 18.637 18.3428 18.3428C18.6369 18.0487 18.8663 17.6962 19.016 17.3081C19.2143 16.7728 19.3191 16.2075 19.3259 15.6368C19.3693 14.6878 19.3784 14.4031 19.3784 12.0001C19.3784 9.597 19.3692 9.3123 19.3259 8.36333C19.3191 7.79261 19.2143 7.22731 19.016 6.6921C18.8663 6.30398 18.6369 5.95149 18.3428 5.65732C18.0486 5.36316 17.6961 5.13381 17.308 4.98405C16.7728 4.78577 16.2075 4.68094 15.6368 4.67415ZM8.2893 3.05415C9.24922 3.01035 9.55575 3 12 3C14.4443 3 14.7508 3.01035 15.7103 3.05453C16.457 3.06948 17.1957 3.21093 17.895 3.47287C18.4929 3.70407 19.0359 4.05763 19.4893 4.51089C19.9426 4.96415 20.2962 5.50712 20.5275 6.105C20.7894 6.80422 20.9309 7.54279 20.9459 8.2893C20.9896 9.24922 21 9.55575 21 12C21 14.4443 20.9897 14.7508 20.9462 15.7103C20.9313 16.457 20.7898 17.1957 20.5279 17.895C20.2966 18.493 19.943 19.036 19.4897 19.4893C19.0364 19.9426 18.4933 20.2963 17.8954 20.5275C17.196 20.7894 16.4573 20.9309 15.7107 20.9459C14.7508 20.9896 14.4443 21 12 21C9.55575 21 9.24923 20.9897 8.28968 20.9462C7.54304 20.9313 6.80434 20.7898 6.105 20.5279C5.50705 20.2966 4.96401 19.943 4.51068 19.4897C4.05735 19.0364 3.70374 18.4933 3.4725 17.8954C3.21056 17.196 3.0691 16.4573 3.05415 15.7107C3.01035 14.7508 3 14.4443 3 12C3 9.55575 3.01035 9.24923 3.05415 8.28968C3.06909 7.54304 3.21055 6.80434 3.4725 6.105C3.70374 5.50705 4.05735 4.96401 4.51068 4.51068C4.96401 4.05735 5.50705 3.70374 6.105 3.4725C6.80422 3.21059 7.54279 3.06914 8.2893 3.05415ZM16.8042 8.27572C17.4006 8.27572 17.8842 7.79219 17.8842 7.19572C17.8842 6.59926 17.4006 6.11572 16.8042 6.11572C16.2077 6.11572 15.7242 6.59926 15.7242 7.19572C15.7242 7.79219 16.2077 8.27572 16.8042 8.27572ZM12 7.37842C11.0859 7.37842 10.1924 7.64947 9.43233 8.15731C8.6723 8.66514 8.07993 9.38694 7.73013 10.2314C7.38033 11.0759 7.28881 12.0052 7.46713 12.9017C7.64546 13.7982 8.08563 14.6217 8.73198 15.2681C9.37833 15.9144 10.2018 16.3546 11.0983 16.5329C11.9949 16.7112 12.9241 16.6197 13.7686 16.2699C14.6131 15.9201 15.3349 15.3277 15.8427 14.5677C16.3506 13.8077 16.6216 12.9141 16.6216 12.0001C16.6216 10.7743 16.1347 9.5988 15.268 8.73207C14.4013 7.86534 13.2257 7.37842 12 7.37842ZM12 15.0001C11.4066 15.0001 10.8266 14.8241 10.3333 14.4945C9.83992 14.1648 9.4554 13.6963 9.22834 13.1481C9.00128 12.5999 8.94187 11.9967 9.05762 11.4148C9.17338 10.8329 9.4591 10.2983 9.87866 9.87875C10.2982 9.45919 10.8328 9.17347 11.4147 9.05771C11.9967 8.94196 12.5998 9.00137 13.148 9.22843C13.6962 9.45549 14.1647 9.84001 14.4944 10.3334C14.824 10.8267 15 11.4067 15 12.0001C15 12.7957 14.6839 13.5588 14.1213 14.1214C13.5587 14.684 12.7956 15.0001 12 15.0001Z" fill="#63142C"/>
</svg>
