<svg width="14" height="14" viewBox="0 0 14 14" fill="none" xmlns="http://www.w3.org/2000/svg">
<path d="M9.16501 9.74002L10.285 8.62002C10.4359 8.47104 10.6267 8.36906 10.8344 8.32646C11.0421 8.28385 11.2577 8.30246 11.455 8.38002L12.82 8.92502C13.0194 9.00596 13.1904 9.14411 13.3114 9.32207C13.4324 9.50003 13.498 9.70983 13.5 9.92502V12.425C13.4988 12.5714 13.4681 12.7161 13.4095 12.8502C13.351 12.9844 13.2659 13.1054 13.1594 13.2058C13.0529 13.3062 12.9272 13.3841 12.7898 13.4346C12.6524 13.4852 12.5062 13.5074 12.36 13.5C2.79501 12.905 0.865006 4.80502 0.500006 1.70502C0.483062 1.55279 0.498543 1.39869 0.54543 1.25288C0.592317 1.10706 0.669547 0.972817 0.772039 0.858988C0.874532 0.74516 0.999965 0.654323 1.14008 0.592452C1.2802 0.530582 1.43184 0.49908 1.58501 0.50002H4.00001C4.21551 0.500658 4.4259 0.565754 4.6041 0.686935C4.78231 0.808116 4.92019 0.97984 5.00001 1.18002L5.54501 2.54502C5.62513 2.74155 5.64558 2.95734 5.60378 3.16543C5.56199 3.37351 5.45981 3.56467 5.31001 3.71502L4.19001 4.83502C4.19001 4.83502 4.83501 9.20002 9.16501 9.74002Z" fill="#63142C"/>
</svg>
