<svg width="42" height="40" viewBox="0 0 42 40" fill="none" xmlns="http://www.w3.org/2000/svg">
<path fill-rule="evenodd" clip-rule="evenodd" d="M34.2917 4.19519C33.6134 3.74193 32.8159 3.5 32 3.5C30.906 3.5 29.8568 3.9346 29.0832 4.70818C28.3096 5.48177 27.875 6.53098 27.875 7.625C27.875 8.44085 28.1169 9.23837 28.5702 9.91673C29.0235 10.5951 29.6677 11.1238 30.4214 11.436C31.1752 11.7482 32.0046 11.8299 32.8048 11.6707C33.6049 11.5116 34.3399 11.1187 34.9168 10.5418C35.4937 9.96492 35.8866 9.22992 36.0457 8.42975C36.2049 7.62958 36.1232 6.80018 35.811 6.04643C35.4988 5.29269 34.9701 4.64845 34.2917 4.19519ZM28.1805 1.90865C29.311 1.15321 30.6403 0.75 32 0.75C33.8234 0.75 35.5721 1.47433 36.8614 2.76364C38.1507 4.05295 38.875 5.80164 38.875 7.625C38.875 8.98475 38.4718 10.314 37.7164 11.4445C36.9609 12.5751 35.8872 13.4563 34.631 13.9767C33.3747 14.497 31.9924 14.6332 30.6588 14.3679C29.3251 14.1026 28.1001 13.4478 27.1386 12.4864C26.1772 11.5249 25.5224 10.2999 25.2571 8.96625C24.9918 7.63263 25.128 6.25029 25.6483 4.99405C26.1687 3.73781 27.0499 2.66408 28.1805 1.90865ZM32 17.25H34.75C36.5727 17.2521 38.3202 17.9771 39.609 19.266C40.8979 20.5548 41.6229 22.3023 41.625 24.125V29.625H38.875V24.125C38.8738 23.0314 38.4388 21.9828 37.6655 21.2095C36.8922 20.4362 35.8437 20.0012 34.75 20H32V17.25ZM30.625 39.25H27.875V36.5C27.8738 35.4063 27.4388 34.3578 26.6655 33.5845C25.8922 32.8112 24.8436 32.3762 23.75 32.375H18.25C17.1564 32.3762 16.1078 32.8112 15.3345 33.5845C14.5612 34.3578 14.1262 35.4063 14.125 36.5V39.25H11.375V36.5C11.3771 34.6773 12.1022 32.9299 13.391 31.641C14.6799 30.3522 16.4273 29.6271 18.25 29.625H23.75C25.5727 29.6271 27.3201 30.3522 28.609 31.641C29.8978 32.9299 30.6229 34.6773 30.625 36.5V39.25ZM23.2917 16.5702C22.6134 16.1169 21.8159 15.875 21 15.875C19.906 15.875 18.8568 16.3096 18.0832 17.0832C17.3096 17.8568 16.875 18.906 16.875 20C16.875 20.8158 17.1169 21.6134 17.5702 22.2917C18.0235 22.9701 18.6677 23.4988 19.4214 23.811C20.1752 24.1232 21.0046 24.2049 21.8048 24.0457C22.6049 23.8866 23.3399 23.4937 23.9168 22.9168C24.4937 22.3399 24.8866 21.6049 25.0457 20.8047C25.2049 20.0046 25.1232 19.1752 24.811 18.4214C24.4988 17.6677 23.9701 17.0234 23.2917 16.5702ZM17.1805 14.2836C18.311 13.5282 19.6403 13.125 21 13.125C22.8234 13.125 24.572 13.8493 25.8614 15.1386C27.1507 16.428 27.875 18.1766 27.875 20C27.875 21.3597 27.4718 22.689 26.7164 23.8195C25.9609 24.9501 24.8872 25.8313 23.631 26.3517C22.3747 26.872 20.9924 27.0082 19.6588 26.7429C18.3251 26.4776 17.1001 25.8228 16.1386 24.8614C15.1772 23.8999 14.5224 22.6749 14.2571 21.3412C13.9918 20.0076 14.128 18.6253 14.6483 17.3691C15.1687 16.1128 16.0499 15.0391 17.1805 14.2836ZM10 17.25H7.25C5.4273 17.2521 3.67986 17.9772 2.39101 19.266C1.10216 20.5549 0.377147 22.3023 0.375 24.125V29.625H3.125V24.125C3.1262 23.0314 3.56118 21.9828 4.33451 21.2095C5.10784 20.4362 6.15635 20.0012 7.25 20H10V17.25ZM12.2917 4.19519C11.6134 3.74193 10.8158 3.5 9.99999 3.5C8.90597 3.5 7.85676 3.9346 7.08318 4.70818C6.30959 5.48177 5.87499 6.53098 5.87499 7.625C5.87499 8.44085 6.11692 9.23837 6.57018 9.91673C7.02344 10.5951 7.66768 11.1238 8.42142 11.436C9.17517 11.7482 10.0046 11.8299 10.8047 11.6707C11.6049 11.5116 12.3399 11.1187 12.9168 10.5418C13.4937 9.96492 13.8866 9.22992 14.0457 8.42975C14.2049 7.62958 14.1232 6.80018 13.811 6.04643C13.4988 5.29269 12.9701 4.64845 12.2917 4.19519ZM6.18045 1.90865C7.31104 1.15321 8.64025 0.75 9.99999 0.75C11.8234 0.75 13.572 1.47433 14.8614 2.76364C16.1507 4.05295 16.875 5.80164 16.875 7.625C16.875 8.98475 16.4718 10.314 15.7163 11.4445C14.9609 12.5751 13.8872 13.4563 12.6309 13.9767C11.3747 14.497 9.99237 14.6332 8.65875 14.3679C7.32513 14.1026 6.10012 13.4478 5.13863 12.4864C4.17715 11.5249 3.52237 10.2999 3.25709 8.96625C2.99182 7.63263 3.12797 6.25029 3.64832 4.99405C4.16867 3.73781 5.04986 2.66408 6.18045 1.90865Z" fill="#63142C"/>
</svg>
